<svg xmlns="http://www.w3.org/2000/svg" width="950" height="750" viewBox="0 0 950 750">
  <rect width="100%" height="100%" fill="#fbfbf8"/>
  <text x="80" y="38" font-family="Arial, sans-serif" font-size="22" font-weight="700" fill="#202020">Drone path and projected camera-center ground path</text>
  <text x="80" y="64" font-family="Arial, sans-serif" font-size="14" fill="#555">heading source: gimbal_yaw | camera angle source: gimbal_pitch | mean drone-to-ground-center offset: 114.2 m</text>
  <rect x="80" y="80" width="790" height="590" fill="none" stroke="#d0d0c8"/>
  <polyline points="683.0,566.4 683.0,566.4 683.0,566.4 683.0,566.4 683.0,566.4 683.0,566.4 683.0,566.4 683.0,566.4 683.0,566.4 683.0,566.4 683.0,566.4 683.0,566.3 683.0,566.3 683.0,566.3 683.0,566.3 682.9,566.3 682.9,566.3 682.9,566.4 682.9,566.4 682.9,566.4 682.9,566.3 682.9,566.3 682.9,566.3 682.9,566.3 682.9,566.3 682.9,566.3 682.9,566.3 682.9,566.3 682.9,566.4 682.9,566.4 682.9,566.3 682.9,566.3 683.0,566.3 683.0,566.3 683.0,566.3 683.1,566.3 683.1,566.3 683.1,566.2 683.2,566.2 683.2,566.2 683.2,566.2 683.2,566.2 683.2,566.2 683.3,566.2 683.3,566.1 683.3,566.1 683.3,566.1 683.3,566.0 683.2,566.0 683.2,566.0 683.2,566.0 683.2,566.0 683.1,566.0 683.1,566.0 683.1,566.0 683.1,566.0 683.1,566.0 683.0,566.0 683.0,566.0 683.0,566.0 683.0,566.0 683.0,566.0 683.0,566.0 683.0,566.1 683.0,566.1 683.0,566.1 683.1,566.1 683.1,566.1 683.1,566.0 683.0,565.9 683.0,565.9 683.0,565.8 682.9,565.8 682.9,565.7 682.9,565.7 682.8,565.7 682.8,565.6 682.9,565.6 682.8,565.7 682.8,565.7 682.8,565.7 682.8,565.8 682.7,565.8 682.7,565.9 682.7,565.9 682.7,566.0 682.7,566.0 682.7,566.1 682.7,566.1 682.8,566.0 682.8,566.0 682.8,565.9 682.8,565.9 682.8,565.8 682.8,565.8 682.9,565.7 682.9,565.7 682.9,565.7 682.9,565.6 683.0,565.6 683.0,565.6 683.0,565.5 683.0,565.5 683.1,565.5 683.1,565.5 683.1,565.5 683.1,565.5 683.1,565.4 683.2,565.4 683.2,565.4 683.3,565.4 683.3,565.3 683.3,565.3 683.3,565.3 683.3,565.3 683.4,565.4 683.4,565.4 683.4,565.4 683.4,565.4 683.4,565.4 683.5,565.4 683.5,565.4 683.6,565.4 683.6,565.4 683.6,565.4 683.6,565.4 683.6,565.4 683.6,565.4 683.6,565.4 683.6,565.4 683.6,565.4 683.6,565.4 683.6,565.4 683.6,565.3 683.6,565.3 683.6,565.3 683.6,565.3 683.6,565.3 683.6,565.3 683.6,565.2 683.6,565.2 683.6,565.2 683.6,565.2 683.7,565.2 683.7,565.3 683.7,565.4 683.7,565.4 683.7,565.5 683.7,565.6 683.7,565.6 683.7,565.7 683.6,565.7 683.7,565.7 683.4,565.8 683.2,565.8 682.8,565.7 682.0,565.5 681.4,565.3 680.7,565.1 679.4,564.9 678.4,564.6 677.3,564.3 675.7,563.9 674.4,563.5 673.2,563.2 671.3,562.7 669.8,562.3 668.3,561.9 666.1,561.3 664.5,560.9 663.1,560.5 660.7,559.8 659.0,559.4 657.4,558.9 654.8,558.2 653.2,557.8 651.4,557.4 648.6,556.6 647.0,556.2 645.1,555.7 642.5,555.0 640.7,554.6 638.8,554.1 636.1,553.4 634.2,552.9 632.5,552.4 629.8,551.7 628.1,551.3 626.4,550.9 623.8,550.2 622.2,549.8 620.4,549.4 618.0,548.8 616.4,548.4 614.7,548.0 612.3,547.4 610.8,547.0 609.3,546.5 607.0,545.8 605.5,545.3 603.9,544.8 601.7,544.1 600.2,543.4 598.8,542.8 596.6,541.8 595.2,541.1 593.8,540.5 591.7,539.5 590.1,538.8 588.7,538.1 586.6,537.2 585.2,536.5 583.6,535.8 581.4,534.8 579.9,534.1 578.5,533.5 576.3,532.5 574.8,531.8 573.2,531.1 570.9,530.1 569.1,529.3 567.5,528.5 564.9,527.4 563.2,526.6 561.5,525.9 558.9,524.7 557.2,524.0 555.6,523.2 552.8,522.0 551.1,521.2 549.4,520.4 546.7,519.2 545.0,518.4 543.2,517.6 540.6,516.4 538.6,515.5 535.9,514.3 533.1,513.0 530.3,511.8 528.4,510.9 525.7,509.7 523.8,508.9 522.0,508.1 519.1,506.8 517.4,506.0 515.6,505.2 512.7,503.9 510.8,503.0 509.0,502.2 506.3,501.0 504.3,500.1 502.5,499.3 499.8,498.1 497.9,497.2 496.1,496.4 493.4,495.2 491.5,494.4 489.6,493.6 485.0,491.5 483.1,490.7 481.2,489.9 478.5,488.7 476.6,487.9 474.7,487.1 471.9,486.0 469.8,485.1 468.1,484.4 465.3,483.2 463.2,482.4 461.4,481.6 458.6,480.4 456.7,479.7 454.6,478.8 451.8,477.6 449.8,476.8 447.7,475.9 444.8,474.7 442.9,473.9 441.0,473.1 438.0,471.8 436.0,471.0 434.0,470.2 431.1,468.9 429.2,468.1 427.3,467.3 424.3,466.1 422.5,465.3 420.5,464.4 417.7,463.2 415.7,462.4 412.8,461.2 410.9,460.4 408.8,459.5 406.0,458.3 404.1,457.5 402.0,456.6 399.1,455.3 397.2,454.5 395.2,453.6 392.4,452.4 390.5,451.5 388.6,450.7 385.6,449.4 383.8,448.5 381.8,447.6 379.1,446.2 377.3,445.2 375.6,444.3 373.0,442.7 371.2,441.4 369.7,440.3 367.5,438.6 366.2,437.3 364.8,436.0 363.0,434.1 361.7,432.6 360.6,431.3 358.9,429.2 357.8,427.8 356.6,426.4 354.8,424.2 353.6,422.9 352.4,421.3 350.5,419.1 349.3,417.6 348.0,416.1 346.1,413.8 344.8,412.3 343.5,410.8 341.7,408.6 340.3,406.9 339.0,405.4 337.0,403.0 335.7,401.5 334.3,400.1 332.2,398.4 330.7,397.1 329.2,396.0 327.1,394.2 325.5,393.0 324.0,391.8 321.8,390.0 320.2,388.8 318.7,387.6 316.6,385.9 315.4,384.9 314.4,384.2 313.3,383.3 312.9,383.0 312.7,382.8 312.4,382.6 312.2,382.4 312.0,382.3 311.8,382.1 311.7,382.1 311.7,382.1 311.7,382.1 311.8,382.2 311.8,382.2 311.9,382.3 311.9,382.3 311.9,382.4 312.0,382.4 312.0,382.5 312.1,382.5 312.1,382.5 312.1,382.6 312.2,382.6 312.2,382.6 312.3,382.7 312.3,382.7 312.3,382.7 312.3,382.7 312.4,382.7 312.4,382.7 312.4,382.7 312.4,382.7 312.4,382.7 312.4,382.7 312.4,382.7 312.4,382.7 312.4,382.7 312.4,382.7 312.4,382.7 312.4,382.7 312.4,382.7 312.4,382.7 312.4,382.7 312.4,382.7 312.4,382.7 312.4,382.7 312.4,382.7 312.4,382.7 312.4,382.7 312.4,382.7 312.4,382.7 312.4,382.7 312.4,382.7 312.3,382.7 312.3,382.6 312.3,382.6 312.3,382.7 312.3,382.6 312.3,382.6 312.3,382.7 312.3,382.7 312.3,382.7 312.3,382.7 312.3,382.7 312.3,382.7 312.3,382.7 312.3,382.7 312.3,382.7 312.3,382.7 312.3,382.7 312.3,382.7 312.2,382.7 312.2,382.7 312.2,382.7 312.3,382.7 312.3,382.7 312.3,382.7 312.3,382.7 312.3,382.7 312.3,382.7 312.3,382.7 312.3,382.7 312.3,382.7 312.3,382.7 312.3,382.7 312.2,382.7 312.3,382.6 312.3,382.6 312.3,382.6 312.3,382.6 312.3,382.6 312.3,382.6 312.3,382.6 312.3,382.6 312.3,382.6 312.2,382.6 312.2,382.6 312.3,382.6 312.3,382.6 312.3,382.6 312.3,382.6 312.3,382.6 312.1,382.6 311.8,382.5 311.4,382.4 310.9,382.2 310.0,381.9 309.2,381.7 308.4,381.4 307.0,380.9 306.0,380.5 305.0,380.1 303.2,379.4 302.0,378.9 300.7,378.4 298.7,377.5 297.3,376.9 295.9,376.4 293.7,375.4 292.1,374.8 290.6,374.2 288.2,373.2 286.7,372.6 285.0,371.9 282.6,370.8 280.9,370.2 278.3,369.0 274.1,367.2 272.4,366.5 270.7,365.8 268.0,364.7 266.3,364.0 264.5,363.3 262.1,362.3 260.3,361.5 258.4,360.8 255.9,359.7 254.3,359.0 251.6,357.9 248.8,356.7 246.2,355.6 244.3,354.8 241.5,353.6 239.7,352.9 237.7,352.0 234.7,350.9 232.8,350.1 231.0,349.3 227.9,348.1 226.0,347.3 224.0,346.5 221.3,345.4 219.3,344.5 217.4,343.7 214.5,342.5 212.6,341.7 210.7,340.9 207.8,339.7 206.0,339.0 202.9,337.7 196.2,334.9 194.3,334.1 192.2,333.3 189.3,332.1 187.4,331.3 185.4,330.5 182.6,329.4 180.6,328.5 178.7,327.8 175.6,326.5 173.7,325.7 171.8,324.9 169.0,323.7 167.1,322.8 165.3,321.9 162.7,320.5 160.8,319.4 159.2,318.4 156.9,316.7 155.3,315.5 154.1,314.4 152.1,312.5 150.9,311.0 149.9,309.7 148.8,307.5 148.2,306.1 147.8,304.6 147.6,302.5 147.7,300.5 148.0,299.3 148.6,297.6 149.1,296.6 149.7,295.7 150.8,294.6 151.7,294.0 152.5,293.5 153.9,292.5 155.0,291.8 156.0,291.1 157.6,290.0 158.8,289.2 160.1,288.4 161.9,287.1 163.3,286.2 164.6,285.3 166.7,284.0 168.1,283.1 169.5,282.2 171.8,280.6 173.3,279.7 174.9,278.6 177.2,277.1 178.8,276.1 180.4,275.1 183.7,273.0 185.4,272.0 187.1,271.1 189.6,269.8 191.3,269.0 193.0,268.3 195.7,267.2 197.5,266.5 199.2,265.9 202.0,264.9 203.8,264.2 205.6,263.6 208.3,262.6 210.1,261.9 213.0,260.9 214.8,260.2 216.7,259.5 219.5,258.5 221.5,257.8 223.3,257.1 226.2,256.1 228.2,255.3 230.1,254.6 233.0,253.6 234.9,252.9 236.9,252.1 239.8,251.1 241.7,250.4 243.8,249.6 246.7,248.5 248.6,247.8 250.7,247.1 253.6,246.0 255.5,245.3 257.6,244.6 260.5,243.5 262.4,242.9 264.4,242.2 268.3,240.9 270.4,240.4 272.3,239.9 275.2,239.2 277.2,238.9 279.1,238.5 281.9,238.1 283.8,237.9 285.8,237.6 288.8,237.2 290.7,236.9 292.7,236.7 295.7,236.3 297.6,236.1 299.6,235.9 302.7,235.5 304.7,235.3 306.8,235.1 309.8,234.8 311.8,234.6 313.8,234.4 317.1,234.1 319.1,233.9 321.3,233.7 324.2,233.4 326.4,233.2 328.4,232.9 331.5,232.6 333.6,232.4 335.8,232.2 338.9,231.9 341.1,231.7 343.2,231.5 346.3,231.1 348.5,230.9 350.4,230.7 353.7,230.4 355.9,230.2 358.0,230.0 361.1,229.8 363.3,229.6 365.3,229.4 368.5,229.1 370.5,228.9 372.7,228.7 375.8,228.4 377.9,228.2 380.1,228.0 383.2,227.7 385.2,227.5 387.4,227.3 390.5,227.0 392.6,226.8 394.8,226.6 397.7,226.3 400.0,226.2 403.1,226.0 406.1,225.9 408.1,225.9 410.3,225.9 416.3,226.2 418.4,226.4 420.4,226.6 424.4,227.1 426.3,227.4 428.4,227.7 431.4,228.1 433.4,228.4 435.4,228.7 438.5,229.1 440.3,229.4 442.4,229.8 445.1,230.7 446.8,231.4 448.3,232.2 450.5,233.5 452.1,234.3 453.6,235.2 455.9,236.6 457.4,237.6 458.7,238.6 460.5,240.2 461.7,241.4 462.7,242.7 464.0,244.5 464.7,245.8 465.3,247.0 466.0,248.9 466.3,250.1 466.6,251.3 466.8,253.1 467.0,254.3 467.1,255.7 467.4,257.8 467.5,259.3 467.7,260.8 467.9,263.2 468.1,264.8 468.2,266.5 468.4,269.1 468.6,270.8 468.7,272.6 468.9,275.3 469.0,277.2 469.2,279.1 469.4,281.9 469.5,283.9 469.6,285.7 469.8,288.7 470.0,290.6 470.1,292.5 470.3,295.6 470.5,297.6 470.7,300.8 470.8,302.8 471.0,304.8 471.2,307.8 471.3,310.0 471.4,312.0 471.6,315.2 471.7,317.2 471.8,319.3 472.0,322.4 472.1,324.5 472.3,326.6 472.4,329.7 472.6,331.9 472.7,334.1 472.8,337.2 472.9,339.2 473.0,341.5 473.2,344.6 473.3,346.7 473.4,348.9 473.5,352.1 473.6,354.1 473.7,356.3 473.9,359.5 474.0,361.5 474.1,363.8 474.3,366.9 474.4,368.9 474.5,371.1 474.6,374.2 474.8,376.4 475.0,378.5 475.4,381.4 475.8,383.2 476.4,385.1 477.3,387.7 478.0,389.3 478.8,390.7 480.0,392.8 481.0,394.2 481.9,395.4 483.4,397.0 484.5,398.1 485.6,399.0 487.2,400.4 488.3,401.5 489.6,402.6 491.3,404.1 492.7,405.3 494.0,406.5 495.9,408.2 497.3,409.4 498.7,410.6 500.9,412.5 502.2,413.7 503.8,415.0 505.9,416.9 507.2,418.0 508.8,419.4 511.1,421.4 512.6,422.7 514.1,424.0 516.3,425.9 517.9,427.3 519.4,428.6 523.4,431.9 525.8,434.0 527.3,435.3 529.7,437.3 531.3,438.7 532.9,440.0 535.3,441.9 537.0,443.2 539.4,445.0 541.8,446.8 543.5,448.0 545.3,449.2 547.7,451.1 549.4,452.2 551.1,453.5 554.5,456.0 556.0,457.1 557.8,458.4 560.3,460.2 562.0,461.5 564.5,463.3 567.1,465.2 569.6,467.1 571.3,468.3 573.9,470.2 575.6,471.4 577.2,472.6 580.6,475.1 582.3,476.4 585.7,478.9 588.3,480.7 590.7,482.5 592.5,483.8 595.1,485.7 596.8,487.0 598.5,488.1 601.1,490.1 602.8,491.3 604.5,492.6 607.1,494.4 608.8,495.6 610.4,496.9 613.1,498.8 614.7,499.9 616.5,501.3 619.0,503.1 620.8,504.3 622.5,505.3 625.1,506.5 626.8,507.1 628.4,507.6 630.9,508.1 632.5,508.2 634.0,508.3 636.2,508.2 637.6,508.0 638.9,507.7 640.7,507.1 641.8,506.7 643.1,506.2 644.9,505.4 646.2,504.8 647.7,504.2 649.8,503.3 651.3,502.6 652.8,502.0 655.2,500.9 656.6,500.3 658.3,499.5 660.8,498.4 662.4,497.6 664.9,496.5 666.7,495.7 668.4,494.9 671.0,493.7 672.7,492.9 674.5,492.0 677.2,490.8 679.0,489.9 680.7,489.1 683.5,487.8 685.2,487.0 687.0,486.2 689.9,484.8 691.6,484.0 693.5,483.2 696.3,481.9 698.1,481.1 700.1,480.1 702.8,478.9 704.6,478.0 706.6,477.1 709.4,475.7 711.2,474.9 713.1,474.0 715.9,472.6 717.8,471.7 719.7,470.8 722.6,469.5 724.5,468.6 726.3,467.7 729.2,466.3 731.1,465.4 733.0,464.5 735.8,463.2 737.7,462.3 739.6,461.3 742.3,460.1 744.3,459.1 746.1,458.2 749.1,456.8 750.9,456.0 752.7,455.1 755.6,453.7 757.5,452.7 759.5,451.8 762.2,450.5 764.2,449.6 766.1,448.7 769.0,447.3 770.8,446.3 772.7,445.2 775.2,443.6 776.5,442.6 778.1,441.3 780.1,439.5 781.2,438.3 782.3,437.0 783.8,435.1 784.9,433.8 786.0,432.5 787.7,430.4 788.9,429.0 790.1,427.6 791.9,425.4 792.9,424.0 794.0,422.5 795.3,420.2 796.1,418.7 796.7,417.2 797.4,414.9 797.7,413.6 798.0,412.0 798.2,410.0 798.3,408.5 798.4,407.2 798.6,404.8 798.7,403.3 798.8,401.6 799.0,399.2 799.1,397.6 799.3,395.9 799.5,393.2 799.6,391.6 799.7,389.6 799.9,386.9 800.0,385.0 800.2,383.3 800.3,380.3 800.4,378.4 800.5,376.5 800.5,373.6 800.4,371.7 800.1,370.0 799.5,367.6 798.9,366.0 798.3,364.6 797.2,362.7 796.4,361.6 795.5,360.8 794.0,359.6 793.0,359.0 792.0,358.6 790.3,358.1 789.3,358.0 788.3,357.9 786.9,358.1 786.0,358.3 785.1,358.6 783.9,359.3 783.1,359.8 782.5,360.4 781.6,361.4 781.2,362.2 780.7,363.0 780.0,364.3 779.4,365.2 778.8,366.2 777.7,367.9 777.0,369.0 776.3,370.1 775.1,371.9 774.2,373.1 773.3,374.3 771.9,376.2 770.9,377.4 769.7,378.7 768.1,380.6 767.0,381.9 765.9,383.3 764.1,385.4 762.9,386.8 761.7,388.2 759.9,390.3 758.7,391.8 757.4,393.3 755.5,395.5 754.3,396.9 753.0,398.5 751.2,400.8 750.1,402.3 749.0,404.0 747.5,406.4 746.5,408.0 745.2,410.5 744.3,412.1 743.4,413.9 742.3,416.4 741.6,418.1 740.9,419.8 739.9,422.4 739.2,424.2 738.5,426.0 737.5,428.7 736.8,430.5 736.1,432.3 735.1,435.2 734.4,437.0 733.7,438.8 732.6,441.6 731.8,443.7 731.1,445.5 730.0,448.5 729.3,450.4 728.6,452.2 727.4,455.2 726.7,457.2 726.0,459.0 724.8,462.0 724.1,464.0 723.4,465.9 722.3,468.8 721.5,470.9 720.7,472.8 719.6,475.8 718.8,477.8 718.1,479.6 717.0,482.7 716.3,484.6 715.5,486.6 714.4,489.6 713.6,491.6 712.9,493.5 711.8,496.5 711.1,498.4 710.3,500.4 709.2,503.4 708.5,505.3 707.7,507.3 706.6,510.2 705.8,512.3 705.0,514.3 703.9,517.2 703.1,519.2 702.4,521.2 701.3,524.1 700.7,525.8 700.1,527.1 699.5,528.7 699.2,529.5 699.1,529.9 698.9,530.3 698.9,530.4 698.8,530.5 698.8,530.6 698.7,530.7 698.7,530.8 698.7,530.8 698.6,530.9 698.6,530.9 698.6,530.9 698.6,530.9 698.6,530.9 698.6,530.9 698.6,530.9" fill="none" stroke="#1b6ca8" stroke-width="3" stroke-linejoin="round" stroke-linecap="round"/>
  <polyline points="685.3,583.4 685.3,583.4 685.3,583.4 685.3,583.4 685.3,583.4 685.3,583.4 685.3,583.4 685.3,583.4 685.3,583.4 685.3,583.4 685.3,583.4 685.3,583.5 685.3,583.7 685.4,584.5 685.5,585.5 685.6,586.1 685.7,587.2 685.8,588.0 685.9,588.7 686.1,590.0 686.3,590.9 686.4,592.1 686.7,594.3 686.8,595.3 687.0,596.5 687.2,598.0 687.3,599.0 687.4,599.9 687.6,601.6 687.8,602.7 688.0,603.8 688.2,605.4 688.4,606.5 688.6,607.4 688.8,609.0 689.0,610.1 689.2,611.0 689.4,612.7 689.6,613.9 689.8,614.9 690.0,616.5 690.2,617.6 690.3,618.6 690.6,620.2 690.7,621.2 690.9,622.1 691.1,623.7 691.2,624.8 691.3,625.8 691.5,627.4 691.6,628.5 691.8,629.5 691.9,631.0 692.0,632.0 692.2,633.0 692.3,634.6 692.5,635.7 692.6,636.8 692.8,638.3 692.9,639.5 693.1,640.5 693.2,641.7 693.3,642.4 693.4,642.7 693.4,643.2 693.5,643.2 693.5,643.3 693.6,643.7 693.6,644.0 693.7,644.6 693.8,645.7 693.9,646.5 694.0,647.4 694.1,649.0 694.3,650.0 694.4,651.1 694.6,652.7 694.7,653.6 694.8,654.5 695.0,656.1 695.1,657.0 695.2,657.9 695.4,659.3 695.5,660.0 695.6,660.7 695.6,661.3 695.6,661.4 695.6,661.5 695.7,661.5 695.7,661.7 695.7,662.0 695.9,662.8 696.0,663.5 696.1,664.0 696.2,664.7 696.3,665.0 696.3,665.3 696.4,665.6 696.5,665.8 696.5,665.9 696.6,666.2 696.7,666.4 696.7,666.7 696.8,667.0 696.9,667.3 696.9,667.4 696.9,667.5 696.9,667.5 697.0,667.5 697.0,667.4 697.1,667.4 697.1,667.4 697.1,667.5 697.2,667.7 697.2,667.8 697.2,667.8 697.3,667.8 697.3,667.8 697.3,668.2 697.4,668.4 697.4,668.4 697.4,668.3 697.5,668.4 697.5,668.6 697.6,668.8 697.6,668.8 697.6,668.8 697.6,668.8 697.6,668.8 697.6,668.9 697.6,669.2 697.7,669.1 697.7,669.1 697.7,669.1 697.7,669.1 697.7,669.1 694.4,669.5 681.8,670.0 657.5,666.7 642.3,661.5 628.6,654.3 610.7,640.4 596.6,623.4 589.3,610.6 582.0,590.3 579.6,576.5 579.0,562.7 581.4,543.4 584.7,531.3 588.1,522.9 588.4,522.3 588.4,522.3 588.4,522.3 588.2,522.4 587.9,522.3 587.5,522.3 586.8,522.0 586.2,521.9 585.4,521.7 584.1,521.5 583.1,521.2 582.1,520.9 580.4,520.5 579.2,520.1 577.9,519.8 576.0,519.2 574.5,518.8 573.0,518.5 570.8,517.9 569.3,517.5 567.8,517.1 565.5,516.4 563.8,515.9 562.1,515.5 559.6,514.8 558.0,514.4 556.1,513.9 553.3,513.2 551.7,512.8 549.8,512.3 547.2,511.6 545.4,511.2 543.6,510.7 540.9,510.0 539.0,509.5 537.2,509.0 534.5,508.3 532.8,507.9 531.1,507.4 528.5,506.8 527.0,506.4 525.2,506.0 522.8,505.4 521.1,505.0 519.6,504.2 517.3,503.3 515.9,502.5 515.9,499.3 513.8,498.0 512.3,497.5 510.9,496.6 510.8,492.0 511.8,487.3 510.7,486.2 508.5,485.3 507.1,484.6 505.7,483.9 503.6,482.9 502.0,482.2 500.6,481.6 498.5,480.6 497.0,479.9 495.5,479.2 493.3,478.3 491.8,477.6 490.4,477.0 488.1,475.9 486.7,475.3 485.2,474.6 482.8,473.5 481.1,472.7 479.4,472.0 476.8,470.8 475.1,470.1 473.3,469.3 470.8,468.2 469.1,467.4 467.4,466.7 464.7,465.5 463.0,464.7 461.3,463.9 458.6,462.6 456.9,461.8 455.1,461.1 452.5,459.9 450.5,459.0 447.8,457.7 445.0,456.5 442.2,455.2 440.3,454.4 437.6,453.1 435.7,452.3 433.9,451.5 431.0,450.2 429.3,449.4 427.5,448.6 424.6,447.3 422.7,446.4 420.9,445.6 418.2,444.4 416.2,443.5 414.4,442.7 411.5,441.8 409.5,441.1 407.5,440.6 404.8,439.6 402.8,438.9 400.8,438.2 396.1,436.2 394.2,435.4 392.4,434.6 389.6,433.4 387.7,432.6 385.8,431.8 383.1,430.7 381.0,429.8 379.2,429.1 376.4,427.9 374.4,427.0 372.5,426.3 369.7,425.1 367.8,424.3 365.7,423.4 362.9,422.3 360.9,421.4 358.8,420.6 355.9,419.3 354.0,418.5 352.1,417.7 349.1,416.5 347.1,415.7 345.1,414.8 342.2,413.6 340.3,412.8 338.5,412.0 335.4,410.7 333.6,410.0 331.6,409.1 328.8,407.9 326.8,407.0 323.9,405.8 322.0,405.0 319.9,404.2 317.1,402.9 315.2,402.1 313.1,401.3 310.2,400.0 308.3,399.2 306.3,398.3 303.6,396.9 301.8,395.9 300.1,394.8 297.9,392.2 296.8,390.3 295.4,388.4 294.1,385.1 293.4,382.5 293.5,379.2 294.2,373.7 294.9,369.8 296.1,365.9 298.2,360.1 299.7,356.4 302.8,351.6 304.2,347.5 305.6,344.2 305.0,342.6 303.3,340.5 302.2,339.1 300.9,337.7 299.1,335.5 298.0,334.2 296.7,332.6 294.9,330.4 293.6,328.9 292.4,327.4 290.5,325.1 289.2,323.6 287.9,322.1 286.0,319.9 284.6,318.2 283.4,316.7 280.6,314.8 275.7,315.8 265.0,321.6 261.1,321.3 259.6,320.1 258.2,319.0 256.1,317.3 254.5,316.0 253.0,314.9 250.8,313.1 249.2,311.8 247.7,310.6 245.5,308.9 244.2,307.8 243.4,307.1 242.3,306.3 241.9,306.0 241.6,305.8 241.4,305.7 241.2,305.5 241.0,305.3 240.8,305.2 240.7,305.1 240.7,305.1 240.7,305.2 240.8,305.2 240.8,305.3 240.8,305.3 240.9,305.4 240.9,305.4 241.0,305.5 241.0,305.5 241.1,305.5 241.1,305.6 241.1,305.6 241.2,305.7 241.2,305.7 241.3,305.7 241.3,305.7 241.3,305.8 241.3,305.8 241.4,305.8 241.4,305.8 241.4,305.8 241.4,305.8 241.4,305.8 241.4,305.8 241.4,305.8 241.4,305.8 241.4,305.8 241.4,305.8 241.4,305.8 241.4,305.8 241.4,305.7 241.4,305.7 241.4,305.7 241.4,305.7 241.4,305.7 241.4,305.7 241.4,305.7 241.4,305.7 241.4,305.7 241.4,305.7 241.4,305.7 241.3,305.7 241.3,305.7 241.3,305.7 241.3,305.7 241.3,305.7 241.3,305.7 241.3,305.7 241.3,305.7 241.3,305.7 241.3,305.7 241.3,305.7 241.3,305.7 241.3,305.7 241.3,305.7 241.3,305.7 241.3,305.7 241.3,305.7 241.3,305.7 241.3,305.7 241.3,305.7 241.2,305.7 241.2,305.8 241.2,305.8 241.2,305.8 241.3,305.8 241.2,305.8 241.3,305.8 241.3,305.8 241.3,305.8 241.3,305.8 241.3,305.8 241.3,305.8 241.3,305.7 241.2,305.7 241.2,305.7 241.2,305.7 241.3,305.7 241.3,305.7 241.3,305.7 241.3,305.7 241.3,305.6 241.3,305.6 241.3,305.6 241.2,305.6 241.2,305.6 241.2,305.6 239.5,307.3 233.1,314.0 225.6,323.9 222.8,328.2 222.8,328.2 222.7,328.2 222.3,328.1 221.9,328.0 221.4,327.8 220.5,327.5 219.8,327.3 218.9,327.0 217.5,326.5 216.5,326.1 215.5,325.7 213.8,325.0 212.6,324.5 211.3,324.0 209.2,323.1 207.8,322.5 206.5,322.0 204.2,321.1 202.6,320.4 201.1,319.8 198.8,318.8 197.3,318.2 195.6,317.5 193.1,316.4 191.5,315.8 188.9,314.6 184.6,312.8 182.9,312.1 181.3,311.4 178.6,310.3 176.8,309.6 175.1,308.9 172.6,307.9 170.8,307.1 169.0,306.4 166.4,305.3 164.8,304.6 162.1,303.5 159.4,302.3 156.7,301.2 154.8,300.4 152.0,299.2 150.2,298.5 148.2,297.6 145.3,296.5 143.4,295.7 141.5,294.9 138.4,293.7 136.6,292.9 134.6,292.1 131.9,291.0 129.8,290.1 128.0,289.3 125.0,288.1 123.2,287.3 121.3,286.5 118.3,285.3 116.5,284.6 113.5,283.3 106.7,280.5 104.8,279.7 102.8,278.9 99.8,277.7 97.9,276.9 96.0,276.1 93.2,275.0 91.2,274.0 89.5,272.9 86.7,271.3 85.1,269.9 83.7,268.3 81.5,266.2 80.4,264.1 81.0,259.8 80.5,255.4 81.2,251.4 83.3,246.1 83.6,241.9 84.8,238.0 88.8,232.4 92.6,226.2 99.1,219.9 111.0,212.4 118.8,207.1 127.7,203.4 144.0,199.9 156.2,198.1 174.8,199.3 192.7,204.7 204.0,208.8 214.4,214.8 230.2,228.7 241.7,242.6 246.6,249.8 247.6,249.6 249.0,248.6 250.0,247.9 251.0,247.2 252.7,246.1 253.8,245.3 255.1,244.5 257.0,243.2 258.3,242.3 259.7,241.4 261.7,240.1 263.1,239.1 264.5,238.2 267.0,236.9 268.6,236.1 270.3,235.4 272.7,234.0 274.4,233.2 276.5,233.3 281.1,234.4 283.8,236.0 286.7,238.7 290.0,239.9 292.6,242.2 295.6,247.2 298.7,247.9 300.5,247.4 302.2,246.8 304.9,245.8 306.7,245.1 308.5,244.5 311.3,243.5 313.1,242.8 315.9,241.8 317.8,241.1 319.6,240.5 322.6,239.4 324.5,238.7 326.3,238.0 329.3,237.0 331.3,236.2 333.2,235.5 336.0,234.5 337.9,233.8 339.9,233.0 342.9,232.0 344.7,231.3 346.8,230.5 349.8,229.4 351.7,228.7 353.7,228.0 356.6,226.9 358.6,226.2 360.6,225.5 363.5,224.5 365.5,223.9 367.8,225.6 372.4,228.3 374.7,230.5 376.9,233.9 379.9,235.9 382.0,238.3 383.9,241.5 386.7,242.2 388.5,241.9 390.6,241.6 393.5,241.2 395.4,241.0 397.3,242.2 400.2,243.1 402.1,243.2 404.2,243.0 407.2,242.7 409.2,242.5 411.3,242.2 414.4,241.9 416.4,241.7 418.4,241.5 421.6,241.6 423.6,241.6 425.8,241.3 428.7,241.1 430.9,240.8 432.9,240.6 436.0,240.3 438.1,240.1 440.3,239.9 443.5,239.6 445.6,239.3 447.7,239.1 450.9,238.8 453.0,238.6 455.0,238.4 458.2,238.1 460.4,237.9 462.5,237.7 465.6,237.4 467.8,237.2 469.8,237.1 473.0,236.8 475.0,236.6 477.2,236.4 480.3,236.1 482.4,235.9 484.6,235.7 487.7,235.3 489.7,235.2 491.9,234.9 495.0,234.7 497.1,234.6 499.2,234.6 502.1,235.4 504.2,236.7 506.8,240.6 509.6,242.3 511.3,244.1 512.9,247.0 517.9,251.7 519.6,253.7 520.8,256.3 524.1,259.1 526.0,259.6 528.1,259.9 531.1,260.3 533.1,260.6 535.1,260.9 538.2,261.3 539.6,263.0 537.9,272.9 536.5,282.0 533.3,290.5 529.5,298.5 531.6,299.9 533.1,300.9 533.4,303.1 533.2,307.4 530.8,312.5 525.5,319.4 522.4,324.7 518.3,329.6 509.6,336.4 503.4,341.6 496.2,345.7 484.9,349.9 477.8,353.0 470.2,354.8 458.7,355.8 455.7,357.3 455.7,358.5 455.8,359.9 456.2,362.0 456.4,363.5 456.4,364.9 456.6,367.4 456.7,369.0 457.1,370.7 457.1,373.3 457.2,375.0 457.4,376.8 457.6,379.5 457.7,381.4 457.8,383.2 458.0,386.1 458.2,388.1 458.3,389.9 458.5,392.9 458.7,394.8 458.8,396.7 459.0,399.8 459.2,401.8 459.4,405.0 459.5,407.0 459.7,409.0 459.8,412.0 460.0,414.2 460.1,416.2 460.3,419.3 460.4,421.4 460.5,423.5 460.7,426.5 460.8,428.6 461.0,430.7 461.1,433.7 461.2,436.0 461.4,438.1 461.5,441.3 461.6,443.4 461.7,445.6 461.9,448.8 461.9,450.8 462.1,453.1 462.2,456.2 462.3,458.3 462.4,460.5 462.6,463.6 462.7,465.7 462.8,467.9 462.9,471.0 463.0,473.1 463.2,475.3 463.5,478.4 466.0,480.8 473.1,483.3 479.1,486.2 485.3,487.6 494.7,488.2 501.6,489.6 508.0,489.7 517.2,488.2 523.8,488.0 530.2,486.7 538.8,483.4 545.2,481.7 550.9,479.2 554.0,478.3 555.7,479.8 556.8,480.8 558.1,481.9 559.8,483.5 561.2,484.7 562.4,485.8 564.4,487.5 565.8,488.7 567.2,490.0 569.3,491.8 570.7,493.0 572.2,494.3 574.4,496.2 575.7,497.3 577.3,498.7 579.6,500.7 581.1,502.0 582.6,503.3 584.8,505.2 586.4,506.6 587.9,507.9 591.8,511.3 594.2,513.3 595.8,514.6 598.3,516.5 600.2,517.6 603.0,517.8 606.5,518.8 609.5,518.8 613.8,518.9 616.2,520.6 617.8,521.8 619.5,523.0 622.0,524.8 623.7,526.0 625.4,527.2 628.8,529.8 630.3,530.9 632.1,532.1 634.6,534.0 636.3,535.3 638.8,537.1 641.4,539.0 643.9,540.9 645.6,542.1 648.2,544.0 649.9,545.2 651.5,546.4 654.9,548.9 656.6,550.1 660.0,552.6 662.6,554.5 665.0,556.3 666.8,557.6 669.4,559.5 671.1,560.7 672.7,561.9 675.4,563.9 677.1,565.1 678.8,566.3 681.4,568.2 683.0,569.4 684.7,570.6 687.4,572.6 689.0,573.7 690.8,575.1 693.5,576.8 698.3,574.6 707.5,566.4 714.5,560.9 720.1,554.6 726.4,544.2 731.5,537.3 735.0,529.8 738.3,518.0 740.9,509.8 742.1,501.6 742.0,489.5 742.1,481.3 742.0,476.1 743.1,475.4 745.0,474.6 746.3,474.0 747.8,473.4 750.0,472.5 751.5,471.8 753.0,471.2 755.3,470.1 756.8,469.5 758.5,468.7 760.8,467.6 762.6,466.8 765.0,465.7 766.7,464.9 768.4,464.1 771.0,462.9 772.7,462.1 774.6,461.2 777.2,460.0 779.1,459.1 780.8,458.4 783.6,457.0 785.4,456.2 787.2,455.3 790.1,454.0 791.8,453.2 793.7,452.4 796.4,451.1 798.3,450.2 800.1,449.4 802.9,448.1 804.7,447.2 806.7,446.3 809.5,444.9 811.3,444.1 813.2,443.2 815.9,441.9 817.9,440.9 819.8,440.1 822.7,438.7 824.6,437.7 826.5,436.9 829.3,435.5 831.3,434.6 833.1,433.7 836.0,432.3 837.8,431.5 839.8,430.5 842.4,429.3 844.4,428.3 846.3,427.4 849.2,426.0 851.0,425.2 852.9,424.3 855.7,422.9 857.7,421.9 859.6,421.0 862.4,419.7 864.4,418.8 866.2,417.5 868.6,414.5 869.4,410.8 869.1,404.1 869.3,397.7 868.2,391.8 865.7,383.6 864.5,377.3 862.4,371.9 859.5,366.0 860.8,363.6 861.9,362.3 863.0,361.0 864.7,358.9 865.9,357.5 866.9,355.9 867.3,352.3 865.8,348.3 861.3,341.7 858.2,335.9 853.7,330.7 845.9,324.3 840.7,319.1 834.7,315.1 825.4,310.5 821.3,307.4 821.2,305.9 821.3,304.6 821.5,302.2 821.6,300.7 821.8,299.0 822.0,296.6 822.1,295.0 822.2,293.3 822.4,290.6 822.5,289.0 822.7,287.0 822.8,284.3 823.0,282.4 822.9,280.6 822.4,277.5 821.2,275.4 818.8,273.0 813.9,269.3 806.6,266.7 795.3,264.9 786.8,263.1 777.6,262.9 763.7,265.2 753.3,267.1 742.9,271.0 729.0,279.2 719.4,285.3 711.3,292.7 701.1,305.5 694.5,314.6 689.6,324.4 684.6,340.0 681.9,350.8 680.8,361.6 681.7,377.8 682.9,388.8 685.7,399.4 692.2,414.2 697.3,424.3 703.4,433.0 704.7,435.7 704.0,436.9 703.4,437.8 702.8,438.8 701.8,440.4 701.0,441.4 699.4,441.6 697.3,442.4 695.5,442.7 693.3,442.6 691.0,443.3 689.6,444.1 688.4,445.3 686.8,447.2 685.7,448.5 684.5,449.9 682.7,452.0 681.5,453.4 680.3,454.8 678.6,456.9 677.3,458.4 676.1,459.9 674.2,462.1 673.2,463.8 673.7,467.5 673.8,472.0 674.7,475.7 676.6,480.3 677.1,484.6 678.3,488.2 680.2,493.3 681.7,496.6 683.2,500.2 685.7,505.1 687.5,508.4 688.5,511.0 687.5,513.6 686.8,515.3 686.1,517.1 685.1,519.9 684.4,521.6 683.7,523.4 682.6,526.3 682.0,528.1 681.3,529.9 680.2,532.8 679.4,534.8 678.7,536.6 677.6,539.6 676.9,541.5 676.2,543.4 675.0,546.4 674.3,548.3 673.6,550.2 672.4,553.1 671.7,555.1 670.9,557.1 669.8,559.9 669.1,562.1 668.3,564.0 667.2,566.9 666.4,569.0 665.7,570.8 664.6,573.8 663.8,575.7 663.1,577.8 661.9,580.8 661.2,582.7 660.5,584.7 659.4,587.7 658.7,589.6 657.9,591.5 656.8,594.6 656.0,596.5 655.3,598.4 654.2,601.4 653.4,603.5 652.6,605.4 651.5,608.3 650.7,610.4 650.0,612.4 648.9,615.3 648.2,616.9 647.7,618.3 647.1,619.9 646.8,620.6 646.6,621.1 646.6,621.4 646.5,621.5 646.4,621.6 646.3,621.8 646.3,621.8 646.3,621.9 646.3,622.0 646.2,622.0 646.2,622.0 646.2,622.1 646.2,622.1 646.2,622.0 646.2,622.0 646.2,622.0" fill="none" stroke="#d95f02" stroke-width="3" stroke-linejoin="round" stroke-linecap="round" opacity="0.9"/>
  <line x1="683.0" y1="566.4" x2="685.3" y2="583.4" stroke="#777" stroke-width="1.5" stroke-dasharray="5 5"/>
  <line x1="698.6" y1="530.9" x2="646.2" y2="622.0" stroke="#777" stroke-width="1.5" stroke-dasharray="5 5"/>
  <circle cx="683.0" cy="566.4" r="5" fill="#1a9850"/>
  <circle cx="698.6" cy="530.9" r="5" fill="#d73027"/>
  <circle cx="685.3" cy="583.4" r="5" fill="#1a9850"/>
  <circle cx="646.2" cy="622.0" r="5" fill="#d73027"/>
  <rect x="80" y="692" width="18" height="4" fill="#1b6ca8"/>
  <text x="108" y="699" font-family="Arial, sans-serif" font-size="13" fill="#333">drone GNSS path, length 1994.3 m</text>
  <rect x="340" y="692" width="18" height="4" fill="#d95f02"/>
  <text x="368" y="699" font-family="Arial, sans-serif" font-size="13" fill="#333">projected camera-center ground path, length 3662.2 m</text>
  <text x="80" y="725" font-family="Arial, sans-serif" font-size="13" fill="#555">Projection assumes flat local ground and uses the camera center ray from DJI metadata when available.</text>
</svg>
