<svg xmlns="http://www.w3.org/2000/svg" width="950" height="750" viewBox="0 0 950 750">
  <rect width="100%" height="100%" fill="#fbfbf8"/>
  <text x="80" y="38" font-family="Arial, sans-serif" font-size="22" font-weight="700" fill="#202020">Drone path and projected camera-center ground path</text>
  <text x="80" y="64" font-family="Arial, sans-serif" font-size="14" fill="#555">heading source: gimbal_yaw | camera angle source: gimbal_pitch | mean drone-to-ground-center offset: 49.3 m</text>
  <rect x="80" y="80" width="790" height="590" fill="none" stroke="#d0d0c8"/>
  <polyline points="197.2,608.1 197.2,608.1 197.2,608.1 197.2,608.0 197.2,608.0 197.2,608.0 197.2,608.0 197.2,608.0 197.2,608.0 197.2,608.0 197.1,608.0 197.1,608.0 197.1,608.0 197.1,608.0 197.1,608.0 197.1,608.0 197.1,608.0 197.1,608.0 197.2,608.0 197.2,608.0 197.2,608.0 197.2,608.0 197.3,608.0 197.3,608.0 197.3,607.9 197.4,607.9 197.4,607.9 197.4,607.9 197.4,607.9 197.5,607.9 197.5,607.9 197.5,607.9 197.6,607.9 197.6,607.9 197.6,607.9 197.7,608.0 197.7,608.0 197.7,608.0 197.7,608.0 197.7,608.0 197.7,608.1 197.7,608.1 197.7,608.1 197.7,608.1 197.7,608.1 197.6,608.1 197.6,608.0 197.5,607.9 197.3,607.6 197.2,607.4 197.0,607.1 196.8,606.7 196.6,606.4 196.3,606.0 196.0,605.5 195.7,605.1 195.4,604.5 195.1,604.0 194.7,603.5 194.3,602.9 193.9,602.1 193.5,601.5 193.1,600.8 192.6,600.0 192.1,599.2 191.7,598.4 191.2,597.6 190.7,596.8 190.2,595.9 189.7,595.0 189.1,594.1 188.6,593.1 188.1,592.2 187.5,591.2 187.0,590.3 186.4,589.2 185.8,588.2 185.2,587.1 184.5,586.0 184.0,585.1 183.3,583.9 182.8,582.9 182.1,581.7 181.4,580.5 180.8,579.5 180.1,578.2 179.4,577.0 178.8,575.8 178.1,574.6 177.5,573.5 176.8,572.2 176.1,571.1 175.4,569.7 174.7,568.4 174.1,567.3 173.3,565.9 172.7,564.7 171.9,563.3 171.2,561.9 170.6,560.7 169.9,559.4 169.2,558.0 168.4,556.6 167.7,555.2 167.0,554.0 166.2,552.5 165.5,551.0 164.8,549.7 164.2,548.5 163.4,547.0 162.8,545.6 162.3,544.2 161.7,542.7 161.1,541.2 160.6,539.8 160.1,538.6 159.6,537.1 159.0,535.6 158.5,534.2 157.9,532.7 157.3,531.2 156.7,529.7 156.2,528.4 155.6,526.8 155.1,525.5 154.6,523.9 154.1,522.3 153.6,520.9 153.2,519.4 152.7,517.9 152.3,516.4 151.9,514.8 151.6,513.4 151.2,511.8 151.0,510.4 150.7,508.8 150.5,507.3 150.3,505.8 150.1,504.3 150.0,502.9 149.8,500.0 149.8,498.5 149.7,496.9 149.8,495.4 149.8,494.1 149.9,492.6 150.0,491.2 150.2,489.7 150.3,488.5 150.5,487.1 150.8,485.6 151.0,484.4 151.3,483.1 151.5,481.8 151.9,480.3 152.2,478.9 152.6,477.7 152.9,476.4 153.3,475.1 153.7,474.0 154.2,472.5 154.6,471.3 155.2,470.0 155.6,468.9 156.1,467.8 156.6,466.5 157.2,465.1 157.8,463.9 158.3,462.8 158.9,461.5 159.4,460.4 160.0,459.0 160.6,457.8 161.2,456.6 161.8,455.2 162.4,453.9 163.1,452.6 163.7,451.2 164.3,450.1 164.9,448.9 165.5,447.5 166.2,446.1 166.9,444.7 167.6,443.5 168.3,442.0 169.0,440.7 169.6,439.6 170.5,438.0 171.2,436.7 171.9,435.3 172.6,434.0 173.5,432.6 174.3,431.1 175.1,429.7 175.9,428.5 176.6,427.2 177.5,425.7 178.4,424.3 179.1,423.1 180.0,421.7 180.9,420.4 181.7,419.1 182.6,417.7 183.6,416.4 184.5,415.2 185.4,414.0 186.4,412.7 187.2,411.7 188.3,410.5 189.1,409.4 190.2,408.2 191.2,407.1 192.4,405.9 193.2,405.0 194.4,403.8 195.5,402.8 196.6,401.8 197.7,400.7 198.7,399.9 199.9,398.9 200.9,398.0 202.1,397.1 203.2,396.2 204.4,395.4 205.7,394.5 208.1,392.9 210.5,391.4 211.8,390.6 212.9,389.9 214.2,389.1 215.6,388.3 216.7,387.6 218.1,386.8 219.5,386.0 220.7,385.2 222.0,384.4 223.2,383.7 224.4,383.0 225.8,382.1 227.2,381.3 228.7,380.4 230.0,379.6 231.3,378.8 232.7,378.0 234.0,377.2 235.4,376.4 236.7,375.6 238.1,374.7 239.5,373.8 240.8,373.0 242.3,372.1 243.6,371.2 245.0,370.4 246.4,369.5 247.6,368.8 249.2,367.8 250.5,367.0 252.0,366.1 253.4,365.2 254.7,364.4 256.1,363.5 257.4,362.7 258.8,361.8 260.4,360.9 261.5,360.2 263.2,359.2 266.0,357.5 266.0,357.5 268.7,355.8 270.1,355.0 271.7,354.0 273.1,353.2 273.1,353.2 274.4,352.4 277.3,350.7 278.8,349.8 280.3,348.8 281.6,348.0 283.1,347.1 284.7,346.2 286.0,345.4 287.6,344.4 289.1,343.4 290.4,342.6 292.0,341.7 293.4,340.8 295.0,339.9 296.3,339.1 297.9,338.2 299.5,337.2 301.0,336.3 302.4,335.5 303.8,334.6 305.3,333.8 306.9,332.9 308.2,332.1 309.8,331.1 311.3,330.2 312.6,329.4 314.2,328.5 315.7,327.5 317.1,326.7 318.7,325.7 320.1,324.8 321.6,323.9 322.9,323.1 324.5,322.2 326.0,321.2 327.3,320.4 329.0,319.5 330.2,318.7 331.8,317.7 333.3,316.8 334.8,315.9 336.4,315.0 337.7,314.2 339.3,313.3 340.6,312.5 342.2,311.6 343.6,310.7 345.3,309.7 346.7,308.9 348.3,307.9 349.7,307.1 351.2,306.2 352.6,305.4 354.2,304.5 355.7,303.6 357.0,302.8 358.5,302.0 360.0,301.1 361.5,300.1 363.2,299.2 364.6,298.4 366.1,297.5 367.6,296.7 369.1,295.7 370.5,294.9 372.1,294.0 373.7,293.1 375.2,292.1 376.6,291.3 378.2,290.4 379.7,289.5 381.2,288.6 382.6,287.8 384.1,286.9 385.7,285.9 387.1,285.1 388.7,284.2 390.2,283.3 391.7,282.5 393.2,281.6 394.8,280.6 396.0,279.9 397.6,279.0 399.2,278.0 400.7,277.1 402.1,276.3 403.6,275.3 404.9,274.5 406.5,273.4 407.9,272.4 409.1,271.6 410.5,270.5 411.7,269.6 413.0,268.5 414.0,267.5 415.1,266.4 416.1,265.4 417.1,264.3 418.3,263.2 419.2,262.2 420.4,261.0 421.5,260.0 422.5,258.9 423.6,257.8 424.6,256.8 425.6,255.6 426.6,254.5 427.5,253.4 428.4,252.1 429.2,250.9 429.9,249.7 430.5,248.6 431.1,247.5 431.7,246.2 432.1,245.1 432.6,243.8 433.0,242.5 433.3,241.4 433.6,240.2 433.9,239.0 434.1,237.9 434.2,236.7 434.4,235.7 434.6,234.5 434.8,233.3 434.9,232.2 435.1,231.0 435.3,229.7 435.5,228.5 435.8,227.2 435.9,226.2 436.2,224.7 436.4,223.5 436.6,222.1 436.9,220.7 437.1,219.5 437.3,218.0 437.5,216.8 437.7,215.3 437.9,213.8 438.1,212.7 438.4,211.1 438.6,209.8 438.8,208.3 439.1,207.0 439.3,205.5 439.5,204.1 439.8,202.7 440.0,201.1 440.2,199.7 440.5,198.1 440.7,196.5 440.9,195.2 441.1,193.8 441.3,192.2 441.6,190.6 441.8,189.2 442.0,187.7 442.2,186.0 442.5,184.4 442.8,182.9 443.1,181.2 443.3,179.8 443.6,178.2 443.8,176.8 444.0,175.2 444.3,173.5 444.5,171.9 444.7,170.4 444.9,169.0 445.1,167.4 445.2,166.0 445.3,164.5 445.4,163.0 445.4,161.5 445.4,160.2 445.3,158.7 445.2,157.6 445.1,156.1 445.0,154.8 444.8,153.7 444.6,152.4 444.3,151.1 444.0,149.9 443.7,148.7 443.4,147.7 443.0,146.5 442.6,145.6 442.1,144.5 441.5,143.5 441.0,142.6 440.5,141.7 440.0,140.9 439.3,140.1 438.7,139.3 438.0,138.6 437.3,137.9 436.5,137.1 435.8,136.5 435.1,136.0 434.2,135.4 433.3,135.0 432.5,134.5 431.6,134.1 430.8,133.8 429.9,133.5 429.0,133.2 428.0,132.9 427.1,132.7 426.2,132.5 425.3,132.3 424.3,132.2 423.5,132.1 422.5,132.0 421.7,132.0 420.7,132.0 419.7,132.0 418.9,132.1 418.0,132.2 417.2,132.4 416.3,132.6 415.5,132.8 414.7,133.0 413.7,133.3 412.8,133.5 412.0,133.7 411.2,133.9 410.2,134.1 409.2,134.4 408.1,134.6 407.1,134.9 406.1,135.1 405.1,135.3 404.0,135.5 403.0,135.8 401.8,136.0 400.8,136.3 399.6,136.5 398.3,136.8 397.1,137.1 395.8,137.4 394.5,137.7 393.4,138.0 392.1,138.3 390.9,138.6 389.6,138.9 388.2,139.2 386.8,139.5 385.5,139.8 384.2,140.2 382.9,140.5 381.6,140.8 380.3,141.2 378.8,141.7 377.4,142.1 376.5,142.5 374.9,143.2 373.8,143.6 372.5,144.2 371.2,144.7 370.1,145.1 368.8,145.6 367.5,146.1 366.3,146.5 364.9,147.2 363.9,147.7 362.5,148.4 361.6,149.0 360.3,149.7 359.0,150.4 357.9,151.1 356.8,151.6 355.5,152.3 354.3,152.9 352.9,153.6 351.8,154.2 350.6,154.8 349.4,155.5 348.0,156.3 346.7,157.0 345.5,157.6 344.2,158.3 343.0,158.9 341.5,159.7 340.3,160.4 338.9,161.1 337.6,161.8 336.2,162.5 334.7,163.2 333.4,164.0 332.1,164.6 330.5,165.5 329.3,166.1 327.8,166.9 326.6,167.5 325.1,168.3 323.6,169.0 322.2,169.8 320.8,170.5 319.3,171.3 317.9,172.0 316.5,172.8 315.2,173.4 313.7,174.2 312.2,175.0 310.9,175.6 309.3,176.4 307.9,177.2 306.5,177.9 305.0,178.7 303.6,179.4 302.3,180.1 300.8,180.9 299.2,181.6 297.9,182.3 296.4,183.1 294.8,183.9 293.6,184.5 292.0,185.4 290.5,186.1 289.1,186.8 287.7,187.5 286.3,188.2 284.7,189.1 283.1,189.8 281.8,190.5 280.4,191.2 278.9,192.0 277.3,192.8 275.8,193.5 274.3,194.2 272.8,195.0 271.4,195.7 270.1,196.4 268.5,197.1 266.9,197.9 265.3,198.7 264.1,199.4 262.4,200.2 260.8,200.9 259.6,201.5 257.9,202.4 256.5,203.0 254.9,203.8 253.6,204.5 252.0,205.3 250.3,206.1 248.7,206.9 247.3,207.6 245.8,208.4 244.3,209.3 243.1,210.1 241.7,211.1 240.4,212.2 239.1,213.3 238.1,214.3 237.1,215.3 235.9,216.6 235.0,217.7 234.2,218.8 233.4,219.8 232.6,220.9 231.8,222.1 230.9,223.2 230.0,224.4 229.2,225.4 228.3,226.5 227.5,227.6 226.5,228.8 225.6,230.0 224.6,231.1 223.9,232.1 222.9,233.3 221.9,234.5 221.1,235.6 220.1,236.8 219.0,238.1 218.2,239.2 217.2,240.5 216.2,241.7 215.3,242.7 214.2,244.1 213.3,245.2 212.3,246.5 211.3,247.8 210.4,248.9 209.3,250.2 208.5,251.2 207.4,252.5 206.5,253.6 205.7,254.6 204.8,255.8 204.1,256.6 203.3,257.5 202.8,258.3 202.3,259.0 201.8,259.6 201.6,260.1 201.4,260.5 201.2,260.7 201.0,261.0 201.0,261.1 200.9,261.2 200.9,261.3 200.9,261.4 200.9,261.4 200.9,261.5 200.9,261.5 200.9,261.5 201.0,261.6 201.0,261.6 201.0,261.6 201.0,261.7 201.1,261.7 201.1,261.7 201.2,261.7 201.2,261.7 201.2,261.7 201.3,261.7 201.3,261.7 201.3,261.8 201.4,261.8 201.4,261.8 201.4,261.8 201.5,261.8 201.5,261.8 201.6,261.8 201.6,261.8 201.6,261.8 201.6,261.8 201.6,261.8 201.7,261.8 201.7,261.8 201.7,261.7 201.7,261.8 201.7,261.7 201.7,261.7 201.7,261.7 201.7,261.7 201.7,261.8 201.7,261.8 201.7,261.8 201.7,261.8 201.7,261.7 201.7,261.7 201.7,261.7 201.7,261.7 201.7,261.7 201.8,261.7 201.8,261.6 201.8,261.6 201.8,261.6 201.8,261.6 201.8,261.6 201.8,261.6 201.8,261.6 201.8,261.6 201.8,261.6 201.8,261.6 201.8,261.6 201.8,261.6 201.8,261.6 201.8,261.6 201.8,261.6 201.8,261.6 201.8,261.6 201.8,261.6 201.8,261.6 201.9,261.6 201.9,261.6 201.9,261.6 201.9,261.6 201.9,261.6 201.9,261.6 201.9,261.6 201.8,261.7 201.8,261.8 201.7,262.0 201.6,262.2 201.4,262.5 201.3,262.8 201.1,263.2 200.9,263.6 200.6,264.0 200.4,264.4 200.1,264.9 199.8,265.5 199.5,266.2 199.2,266.8 198.9,267.4 198.5,268.1 198.2,268.8 197.8,269.5 197.4,270.3 197.0,271.1 196.5,272.0 196.1,272.8 195.7,273.7 195.2,274.6 194.8,275.4 194.2,276.4 193.7,277.4 193.2,278.4 192.7,279.3 192.1,280.5 191.5,281.5 191.0,282.5 190.4,283.6 189.9,284.6 189.3,285.8 188.6,287.0 188.0,288.2 187.4,289.4 186.8,290.5 186.2,291.8 185.7,292.8 185.1,294.2 184.5,295.5 184.1,296.5 183.6,297.8 183.1,299.1 182.5,300.5 182.0,301.6 181.4,303.0 180.8,304.4 180.2,305.8 179.7,307.0 179.3,308.3 178.8,309.9 178.5,311.2 178.1,312.5 177.8,313.7 177.4,315.1 177.0,316.5 176.7,317.8 176.2,319.2 175.7,320.7 175.2,322.1 174.6,323.4 174.0,324.5 173.4,325.6 172.8,326.5 172.1,327.7 171.4,328.7 170.6,329.9 169.9,330.9 169.1,331.8 168.2,332.7 167.4,333.6 166.7,334.4 165.8,335.5 165.0,336.4 164.1,337.5 163.4,338.4 162.4,339.5 161.7,340.4 160.7,341.5 159.8,342.6 159.1,343.5 158.2,344.6 157.2,345.7 156.2,346.9 155.4,347.9 154.4,349.0 153.4,350.2 152.6,351.2 151.5,352.4 150.5,353.6 149.7,354.6 148.5,355.9 147.6,357.0 146.6,358.1 145.8,359.2 144.8,360.3 143.8,361.6 142.8,362.6 142.0,363.6 141.3,364.4 140.4,365.4 139.8,366.0 139.2,366.8 138.7,367.3 138.1,368.0 137.7,368.4 137.3,368.9 137.0,369.2 136.7,369.4 136.5,369.7 136.3,369.9 136.3,370.0 136.1,370.0 136.1,370.1 136.1,370.1 136.1,370.1 136.1,370.2 136.1,370.2 136.1,370.2 136.1,370.3 136.1,370.2 136.1,370.3 136.1,370.3 136.1,370.3 136.2,370.3 136.2,370.3 136.2,370.3 136.2,370.3 136.3,370.2 136.3,370.2 136.3,370.2 136.3,370.2 136.4,370.1 136.4,370.1 136.4,370.1 136.4,370.0 136.4,370.0 136.4,370.0 136.5,370.0 136.5,370.0 136.5,369.9 136.5,369.9 136.5,370.0 136.4,370.1 136.3,370.3 136.1,370.5 135.9,370.7 135.7,370.9 135.5,371.2 135.2,371.6 134.9,371.9 134.5,372.4 134.2,372.8 133.7,373.4 133.4,373.9 132.9,374.5 132.2,375.7 131.9,376.3 131.6,376.9 131.4,377.5 131.2,378.3 131.0,378.9 130.8,379.6 130.7,380.3 130.5,381.0 130.4,381.7 130.2,382.5 130.0,383.3 129.9,384.0 129.8,384.8 129.8,385.7 129.8,386.5 129.9,387.3 130.0,388.1 130.2,388.8 130.6,390.3 130.8,391.1 131.1,391.9 131.4,392.8 131.7,393.6 132.0,394.5 132.3,395.4 132.5,396.3 132.8,397.2 133.1,398.3 133.4,399.3 133.8,400.4 134.1,401.5 134.5,402.6 134.8,403.6 135.3,404.6 135.8,405.5 136.3,406.5 137.0,407.5 137.7,408.3 138.4,409.1 139.1,409.8 139.9,410.4 140.6,410.9 141.5,411.5 142.3,411.9 143.2,412.3 144.0,412.5 144.9,412.8 145.6,412.9 146.5,413.1 147.4,413.1 148.2,413.1 148.9,413.1 149.8,413.1 150.5,413.0 151.4,413.0 152.3,413.0 153.3,412.9 154.2,412.9 155.3,412.9 156.3,412.8 157.1,412.8 157.9,412.8 158.8,412.8 159.5,412.8 160.1,412.8 160.7,412.7 161.3,412.7 161.6,412.7 162.1,412.7 162.4,412.6 162.7,412.7 162.9,412.7 163.1,412.7 163.3,412.6 163.4,412.7 163.5,412.7 163.6,412.7 163.7,412.7 163.8,412.7 163.9,412.7 164.0,412.7 164.1,412.7 164.2,412.7 164.2,412.7 164.3,412.7 164.4,412.7 164.5,412.7 164.5,412.8 164.6,412.8 164.6,412.8 164.7,412.8 164.8,412.9 164.8,412.9 164.9,412.9 164.9,412.9 165.0,412.9 165.0,412.9 165.1,412.9 165.1,413.0 165.2,413.0 165.2,413.0 165.2,412.9 165.3,412.9 165.3,412.9 165.4,412.9 165.4,412.9 165.5,412.9 165.5,412.8 165.6,412.8 165.6,412.8 165.7,412.8 165.7,412.7 165.8,412.7 165.8,412.7 165.9,412.7 165.9,412.7 166.0,412.7 166.0,412.7 166.1,412.6 166.1,412.6 166.2,412.6 166.2,412.6 166.3,412.6 166.3,412.6 166.4,412.6 166.4,412.6 166.5,412.6 166.6,412.6 166.7,412.6 166.7,412.6 166.8,412.6 166.8,412.6 166.9,412.7 166.9,412.9 166.9,413.1 166.9,413.4 166.9,413.8 166.9,414.1 166.8,414.6 166.8,415.0 166.7,415.6 166.6,416.1 166.5,416.8 166.4,417.4 166.3,418.1 166.2,418.8 166.0,419.6 165.9,420.5 165.7,421.3 165.5,422.2 165.4,423.0 165.2,424.0 165.1,425.1 164.9,426.0 164.7,427.1 164.6,428.1 164.4,429.3 164.3,430.2 164.1,431.5 163.9,432.6 163.7,433.8 163.5,434.8 163.3,436.2 163.1,437.4 163.0,438.5 162.9,439.9 162.8,441.0 162.9,442.3 162.9,443.6 163.0,444.7 163.1,446.1 163.2,447.3 163.3,448.5 163.3,449.8 163.4,451.0 163.5,452.4 163.6,453.6 163.7,455.0 163.8,456.5 163.9,457.8 164.0,459.1 164.1,460.7 164.2,462.0 164.3,463.5 164.4,464.7 164.5,466.2 164.6,467.8 164.7,469.3 164.8,470.7 164.9,472.3 165.0,473.8 165.2,475.2 165.3,476.8 165.3,478.2 165.4,480.0 165.5,481.4 165.5,483.1 165.6,484.7 165.7,486.2 165.8,487.7 165.9,489.2 166.0,490.8 166.1,492.5 166.3,494.2 166.5,495.8 166.7,497.2 166.9,498.8 167.2,500.1 167.5,501.7 167.9,503.1 168.2,504.4 168.6,505.8 169.1,507.3 169.5,508.7 170.0,509.9 170.5,511.2 171.1,512.5 171.7,513.8 172.2,515.0 172.7,516.4 173.3,517.7 173.9,519.1 174.4,520.3 175.0,521.7 175.5,522.9 176.1,524.3 176.7,525.6 177.2,527.0 177.9,528.6 178.5,530.0 179.1,531.4 179.7,532.9 180.3,534.2 181.0,535.7 181.5,536.9 182.1,538.4 182.8,539.9 183.4,541.4 184.0,542.7 184.6,544.1 185.2,545.6 185.8,546.9 186.5,548.4 187.1,549.9 187.7,551.4 188.2,552.8 188.9,554.3 189.4,555.6 189.9,556.8 190.4,558.0 190.9,559.1 191.3,559.9 191.7,561.0 192.0,561.7 192.3,562.5 192.6,563.1 192.9,563.8 193.0,564.1 193.2,564.6 193.3,564.8 193.4,565.0 193.4,565.2" fill="none" stroke="#1b6ca8" stroke-width="3" stroke-linejoin="round" stroke-linecap="round"/>
  <polyline points="161.6,670.0 161.6,670.0 161.6,670.0 161.6,670.0 161.6,670.0 161.6,669.9 161.6,669.9 161.6,670.0 161.6,670.0 161.6,669.9 161.5,669.9 161.5,669.9 160.8,669.5 157.1,667.2 151.7,663.1 146.3,658.2 141.3,652.6 137.0,646.5 133.1,640.1 130.1,633.2 127.8,626.0 126.4,618.7 125.7,611.2 126.0,603.7 126.6,596.2 128.3,588.9 130.9,581.9 134.0,575.0 137.7,568.7 140.6,564.7 141.9,563.1 142.8,562.0 144.6,560.0 153.8,551.5 159.9,547.3 165.8,544.0 168.3,542.9 168.6,542.7 168.6,542.8 168.7,542.8 168.7,542.8 168.7,542.8 168.7,542.8 168.7,542.8 168.6,542.8 168.6,542.8 168.5,542.7 168.4,542.6 168.3,542.4 168.1,542.2 167.9,541.8 167.7,541.5 167.5,541.1 167.3,540.8 166.9,540.3 166.7,539.8 166.3,539.3 166.0,538.7 165.7,538.2 165.3,537.6 164.9,536.9 164.5,536.3 164.0,535.5 163.5,534.7 163.1,533.9 162.6,533.2 162.1,532.3 161.6,531.5 161.1,530.6 160.6,529.8 160.1,528.8 159.5,527.9 159.0,527.0 158.4,525.9 157.9,525.1 157.3,524.0 156.7,522.9 156.1,521.9 155.5,520.8 154.9,519.8 154.3,518.6 153.7,517.7 153.0,516.5 152.3,515.3 151.7,514.2 151.0,513.0 150.4,511.8 149.7,510.6 149.0,509.4 148.5,508.2 147.8,506.9 147.2,505.8 146.6,504.4 146.0,503.0 145.4,501.9 144.7,500.4 144.2,499.2 143.5,497.7 142.8,496.3 142.2,495.1 141.5,493.9 140.8,492.5 140.1,491.1 139.3,489.6 138.7,488.4 137.9,486.9 137.2,485.4 137.1,483.9 137.8,482.1 138.9,479.9 139.8,477.5 140.1,476.1 140.2,474.5 139.7,472.9 139.1,471.5 138.7,470.3 138.2,469.0 137.6,467.4 137.1,466.1 136.5,464.6 136.0,463.0 135.6,461.5 135.4,460.0 135.4,458.3 135.8,456.7 136.1,454.9 136.4,453.1 136.8,451.5 137.2,449.6 137.5,448.0 138.1,446.2 139.0,444.4 140.1,442.8 141.1,441.0 142.4,439.4 143.6,437.6 144.7,435.9 146.0,434.3 147.2,432.8 148.6,431.3 151.3,428.5 152.6,427.0 154.1,425.4 155.5,424.1 156.9,422.9 158.5,421.6 160.0,420.3 161.5,419.1 163.1,418.1 164.7,416.9 166.2,415.9 167.9,415.0 169.5,414.0 171.2,413.1 172.9,412.0 174.5,411.0 176.3,410.3 177.9,409.5 179.7,408.8 181.4,408.1 183.2,407.1 184.8,406.6 186.6,405.8 188.0,405.3 189.3,404.5 190.3,403.5 191.0,402.2 191.7,401.0 192.3,400.0 193.1,398.8 193.8,397.8 194.7,396.6 195.5,395.5 196.4,394.5 197.3,393.2 198.1,392.0 199.1,390.9 200.0,389.7 200.7,388.7 201.6,387.7 202.5,386.4 203.6,385.2 204.5,383.9 205.4,382.9 206.5,381.7 207.4,380.5 208.3,379.5 209.5,378.2 210.5,377.1 211.6,375.9 212.7,374.9 213.9,373.7 215.1,372.6 216.4,371.4 217.5,370.4 218.7,369.5 220.0,368.3 221.4,367.3 222.5,366.4 224.0,365.4 225.6,364.7 227.2,364.1 229.0,363.4 230.8,362.8 232.5,362.4 234.3,361.9 236.1,361.4 237.7,361.2 239.6,360.9 241.3,360.6 243.1,360.3 244.9,359.9 246.8,359.6 248.4,359.5 250.2,359.3 252.0,359.1 253.8,359.0 255.6,358.9 257.2,358.9 259.1,358.8 260.7,358.9 262.5,358.8 264.2,358.9 265.8,358.9 267.7,359.0 271.1,359.1 274.3,359.3 275.8,358.7 276.9,358.1 278.2,357.3 279.5,356.6 280.7,355.9 282.1,355.0 283.4,354.2 284.7,353.5 286.0,352.7 287.2,351.9 288.4,351.2 289.8,350.4 291.2,349.5 292.7,348.6 294.0,347.8 295.2,347.0 296.5,346.0 297.7,344.9 298.9,343.7 300.1,342.7 301.5,341.7 302.9,340.8 304.1,340.0 305.6,339.1 307.0,338.2 308.3,337.4 309.8,336.5 311.0,335.8 312.6,334.8 313.8,334.0 315.3,333.1 316.8,332.2 318.0,331.4 319.5,330.5 320.7,329.7 322.2,328.9 323.7,327.9 324.9,327.2 326.5,326.2 329.3,324.5 329.3,324.5 332.1,322.8 333.4,322.0 335.1,321.0 336.6,320.2 336.6,320.2 337.9,319.4 340.7,317.6 342.3,316.7 343.8,315.7 345.1,315.0 346.6,314.0 348.2,313.1 349.5,312.3 351.1,311.3 352.6,310.4 353.9,309.6 355.5,308.6 356.9,307.8 358.4,306.8 359.7,306.1 361.2,305.2 362.8,304.2 364.3,303.4 365.7,302.5 367.2,301.7 368.7,300.8 370.2,299.9 371.6,299.1 373.1,298.2 374.7,297.2 376.0,296.4 377.6,295.5 379.1,294.5 380.5,293.7 382.0,292.7 383.5,291.8 385.0,290.9 386.3,290.1 387.8,289.2 389.4,288.2 390.7,287.5 392.3,286.5 393.6,285.7 395.1,284.8 396.7,283.9 398.2,283.0 399.7,282.0 401.1,281.2 402.6,280.3 404.0,279.5 405.5,278.6 407.0,277.8 408.6,276.7 410.1,275.9 411.6,275.0 413.0,274.1 414.5,273.2 416.0,272.4 417.5,271.5 419.1,270.6 420.4,269.8 421.8,269.0 423.3,268.1 424.9,267.2 426.5,266.2 428.0,265.4 429.5,264.5 430.9,263.7 432.5,262.7 433.9,262.0 435.4,261.0 437.0,260.1 438.6,259.1 440.0,258.3 441.6,257.4 443.0,256.5 444.6,255.6 445.9,254.8 447.5,253.9 449.1,252.9 450.4,252.2 452.1,251.2 453.6,250.3 455.0,249.4 456.4,248.4 457.9,247.3 459.2,246.5 460.6,245.3 462.1,244.3 463.5,243.0 464.6,241.8 465.8,240.3 466.7,238.7 467.7,236.7 468.5,234.6 468.8,232.4 469.2,229.7 469.1,227.1 469.0,224.2 468.7,221.6 468.4,218.8 468.6,216.5 469.1,215.4 470.2,214.2 471.2,213.2 472.4,212.0 473.5,211.0 474.5,210.0 475.3,208.5 475.3,206.5 474.7,203.7 473.7,200.9 472.6,198.0 471.5,195.1 470.1,192.3 468.6,189.7 467.1,187.2 465.4,184.8 463.6,182.3 461.7,180.1 459.9,177.8 457.9,175.6 455.8,173.5 453.7,171.7 451.5,169.8 449.4,168.1 448.3,166.7 448.1,165.6 448.3,164.4 448.5,163.2 448.7,162.1 448.9,160.9 449.1,159.6 449.3,158.4 449.5,157.1 449.7,156.1 450.0,154.6 450.2,153.4 450.4,152.0 450.6,150.6 450.8,149.4 451.0,147.9 451.2,146.7 451.5,145.2 451.7,143.8 451.9,142.6 452.1,141.0 452.4,139.7 452.6,138.2 452.8,136.9 453.1,135.4 453.3,134.0 453.5,132.6 453.8,131.0 454.0,129.6 454.2,128.0 454.4,126.5 454.6,125.1 454.8,123.7 455.1,122.1 455.3,120.5 455.5,119.1 455.7,117.6 456.0,115.9 456.3,114.3 456.5,112.8 456.7,111.1 456.9,109.7 457.1,108.0 457.0,106.6 456.9,104.9 456.8,103.1 456.3,101.5 455.6,99.8 454.5,98.2 453.2,96.4 451.7,94.9 450.1,93.2 448.2,91.6 446.4,90.1 444.5,88.8 442.5,87.3 440.4,86.3 438.2,85.0 435.8,83.9 433.4,83.2 430.8,82.3 428.2,81.6 425.4,80.9 422.7,80.4 419.8,80.3 416.9,80.0 414.1,80.1 411.1,80.2 408.1,80.4 405.2,80.8 402.3,81.3 399.5,82.0 396.6,82.8 393.9,83.8 391.1,84.8 388.3,85.9 385.6,87.1 383.1,88.4 380.5,89.9 377.9,91.4 375.4,93.2 373.1,95.0 370.6,96.9 368.5,99.0 366.2,101.0 364.2,103.2 362.1,105.4 360.2,107.8 358.3,110.2 356.6,112.6 354.9,115.1 353.4,117.6 351.9,120.2 350.7,122.8 349.4,125.6 348.2,128.7 347.5,132.0 346.6,135.2 346.1,138.9 345.5,142.2 345.0,143.7 344.1,144.2 343.2,144.6 342.3,144.8 341.5,145.0 340.6,145.2 339.7,145.4 338.6,145.7 337.7,145.9 336.7,146.1 335.7,146.3 334.7,146.6 333.6,146.8 332.6,147.0 331.4,147.3 330.4,147.6 329.2,147.8 327.9,148.1 326.7,148.4 325.4,148.7 324.1,149.0 323.0,149.3 321.7,149.6 320.5,149.8 319.2,150.2 317.8,150.5 316.4,150.8 315.1,151.1 313.8,151.4 312.5,151.8 311.3,153.2 310.3,155.5 309.3,158.2 308.4,160.5 307.9,162.5 306.5,163.8 305.5,164.4 304.1,164.9 302.8,165.5 301.7,165.9 300.6,166.4 299.6,167.8 299.1,170.1 298.4,173.1 298.2,175.8 297.3,177.5 296.5,178.4 295.3,179.0 294.1,179.7 292.9,180.4 291.8,180.9 290.6,181.6 289.4,182.2 287.9,183.0 286.8,183.6 285.6,184.2 284.4,184.9 283.0,185.6 281.7,186.3 280.5,186.9 279.2,187.6 278.0,188.3 276.5,189.1 275.3,189.7 273.9,190.4 272.6,191.1 271.3,191.8 269.8,192.6 268.4,193.3 267.2,194.0 265.6,194.8 264.3,195.4 262.9,196.2 261.6,196.8 260.1,197.6 258.7,198.4 257.2,199.2 255.9,199.8 254.4,200.6 252.9,201.4 251.5,202.1 250.2,202.8 248.7,203.5 247.2,204.3 245.9,205.0 244.3,205.8 242.9,206.5 241.5,207.2 240.0,208.0 238.6,208.7 237.3,209.4 235.8,210.2 234.3,211.0 233.0,211.6 231.4,212.4 229.8,213.3 228.6,213.9 227.0,214.7 225.5,215.5 224.1,216.2 222.8,216.8 221.3,217.6 219.7,218.4 218.2,219.2 216.8,219.8 215.4,220.5 214.0,221.3 212.3,222.1 210.8,222.8 209.2,223.6 207.7,224.4 206.3,225.1 205.0,225.8 203.4,226.5 201.8,227.3 200.3,228.1 199.1,228.7 197.4,229.5 195.9,230.3 194.6,230.9 192.9,231.7 191.6,232.4 190.0,233.2 188.6,233.8 187.0,234.6 185.4,235.5 184.1,236.9 183.2,239.0 182.5,241.6 182.2,244.5 182.2,247.8 182.5,251.4 183.0,255.0 183.7,258.6 184.7,262.0 185.8,265.3 187.0,268.8 188.3,271.8 189.4,274.7 189.5,276.6 189.0,277.7 188.4,278.9 187.5,280.0 186.6,281.1 185.8,282.1 184.9,283.3 184.1,284.3 183.1,285.5 182.2,286.8 181.3,287.9 180.6,288.7 179.6,289.9 178.6,291.2 177.8,292.2 176.8,293.5 175.7,294.7 174.9,295.8 173.9,297.1 172.9,298.3 172.0,299.4 170.8,300.9 170.0,302.0 168.9,303.3 167.9,304.6 167.0,305.7 166.0,306.9 165.1,308.0 164.1,309.2 163.1,310.4 162.3,311.4 161.3,312.6 160.6,313.5 159.9,314.4 159.3,315.1 158.9,315.8 158.4,316.5 158.2,316.8 158.0,317.3 157.8,317.5 157.7,317.7 157.6,317.8 157.5,317.9 157.5,318.0 157.5,318.1 157.5,318.2 157.5,318.2 157.5,318.3 157.5,318.3 157.6,318.3 157.6,318.3 157.6,318.4 157.7,318.4 157.7,318.4 157.7,318.4 157.8,318.4 157.8,318.5 157.9,318.5 157.9,318.5 157.9,318.5 158.0,318.5 158.0,318.5 158.0,318.5 158.1,318.5 158.1,318.5 158.1,318.5 158.2,318.6 158.2,318.5 158.2,318.6 158.2,318.5 158.3,318.5 158.3,318.5 158.3,318.5 158.3,318.5 158.3,318.5 158.3,318.5 158.3,318.5 158.3,318.5 158.3,318.5 158.3,318.5 158.3,318.5 158.3,318.5 158.3,318.5 158.3,318.5 158.3,318.5 158.3,318.4 158.3,318.4 158.4,318.4 158.4,318.4 158.4,318.4 158.4,318.4 158.4,318.3 158.4,318.3 158.4,318.3 158.4,318.3 158.4,318.3 158.4,318.3 158.4,318.3 158.4,318.3 158.4,318.3 158.4,318.3 158.4,318.3 158.4,318.3 158.4,318.3 158.4,318.3 158.4,318.3 158.4,318.3 158.5,318.3 158.5,318.3 158.5,318.3 158.5,318.3 158.5,318.3 158.5,318.3 158.5,318.3 158.5,318.4 158.5,318.3 158.5,318.4 158.4,318.6 158.3,318.8 158.1,319.2 158.0,319.4 157.8,319.8 157.6,320.2 157.3,320.6 157.1,321.1 156.8,321.6 156.5,322.2 156.2,322.8 155.9,323.4 155.6,324.1 155.2,324.7 154.9,325.4 154.5,326.1 154.1,326.9 153.7,327.8 153.3,328.6 152.8,329.4 152.4,330.3 151.9,331.2 151.5,332.0 150.9,333.0 150.4,334.0 149.9,335.0 149.4,336.0 148.8,337.1 148.2,338.1 147.7,339.2 147.0,340.4 146.5,341.4 145.9,342.5 145.3,343.8 144.6,344.9 144.2,346.3 143.9,347.6 144.0,349.4 144.6,351.3 145.2,353.5 145.4,355.5 145.3,356.5 144.9,357.8 144.4,359.1 143.9,360.4 143.4,361.5 142.8,362.9 142.3,364.4 142.6,366.3 143.8,368.8 145.6,371.2 147.1,373.8 147.8,375.8 147.7,377.2 147.4,378.3 147.0,379.7 146.6,381.2 146.1,382.4 144.6,383.3 141.7,383.5 137.9,383.1 133.9,382.1 130.0,380.8 127.2,380.1 125.7,380.2 124.4,380.8 123.1,381.3 120.8,381.1 118.3,380.3 115.9,379.4 114.1,379.7 113.2,380.1 112.5,380.9 111.6,382.0 110.8,382.9 109.9,383.9 109.1,384.9 108.2,386.0 107.5,386.9 106.5,388.0 105.6,389.1 104.8,390.0 103.9,391.0 102.9,392.2 102.0,393.4 101.2,394.3 100.2,395.5 99.2,396.7 98.4,397.7 97.3,398.9 96.3,400.1 95.5,401.1 94.3,402.4 93.4,403.4 92.4,404.6 91.6,405.6 90.5,406.8 89.5,408.1 88.5,409.2 87.7,410.1 87.0,410.9 86.1,411.9 85.5,412.6 84.8,413.3 84.4,413.8 83.9,414.4 83.5,414.9 83.1,415.3 82.7,415.7 82.5,415.9 82.3,416.2 82.1,416.4 82.0,416.4 81.9,416.5 81.9,416.6 81.9,416.6 81.9,416.6 81.9,416.7 81.9,416.7 81.9,416.7 81.9,416.7 81.9,416.7 81.9,416.8 81.9,416.8 81.9,416.8 81.9,416.8 81.9,416.8 82.0,416.7 82.0,416.7 82.0,416.7 82.1,416.7 82.1,416.7 82.1,416.6 82.1,416.6 82.2,416.6 82.2,416.5 82.2,416.5 82.2,416.5 82.2,416.5 82.3,416.5 82.3,416.4 82.3,416.4 82.3,416.4 82.2,416.5 82.2,416.6 82.0,416.8 81.9,416.9 81.8,417.1 81.6,417.3 81.4,417.6 81.0,418.0 80.8,418.3 80.4,418.8 80.2,419.3 80.0,420.4 80.7,422.1 81.8,424.4 85.5,429.7 88.0,432.6 90.7,435.4 93.7,438.2 96.5,440.7 99.6,443.1 101.8,445.2 103.2,446.2 103.7,447.2 104.1,448.1 104.7,449.2 106.2,450.7 108.6,452.2 111.7,453.9 115.6,455.7 120.6,457.4 125.7,458.6 130.9,459.5 136.0,460.0 141.7,461.1 142.1,461.6 142.4,462.4 142.7,463.3 143.0,464.1 143.3,465.0 143.6,465.9 143.8,466.8 144.1,467.7 144.4,468.9 144.7,469.8 145.1,471.0 145.6,472.0 147.6,472.8 151.0,473.2 155.3,473.2 159.7,472.8 164.5,472.2 169.4,471.2 174.3,469.7 179.0,467.8 183.7,465.6 188.0,463.0 192.1,460.2 196.4,456.9 200.6,453.0 204.6,448.6 208.0,443.8 211.3,438.7 213.9,433.3 216.3,427.8 218.1,421.9 219.3,417.5 220.2,416.1 221.1,415.8 221.9,415.8 222.8,415.8 223.7,415.7 224.6,415.7 225.6,415.7 226.6,415.6 227.6,415.6 228.5,415.5 229.3,415.6 230.2,415.6 230.9,415.5 231.5,415.5 232.0,415.4 232.7,415.4 233.0,415.4 233.4,415.4 233.8,415.4 234.1,415.4 234.3,415.4 234.5,415.4 234.6,415.4 234.8,415.4 234.9,415.4 235.0,415.4 235.1,415.4 235.2,415.4 235.3,415.4 235.4,415.5 235.5,415.5 235.6,415.5 235.6,415.5 235.7,415.5 235.7,415.5 235.8,415.5 235.9,415.5 236.0,415.5 236.0,415.6 236.1,415.6 236.1,415.6 236.2,415.6 236.2,415.8 236.3,416.6 236.3,420.3 235.4,426.6 233.7,433.7 231.2,440.7 228.0,447.5 224.1,453.9 219.3,459.6 214.2,465.0 208.5,469.8 202.4,474.0 195.9,477.5 189.2,480.2 185.2,481.5 184.3,481.7 184.2,481.7 184.3,481.7 184.3,481.7 184.4,481.7 184.4,481.7 184.5,481.7 184.2,481.7 182.0,482.3 176.9,483.2 171.0,483.9 167.9,484.0 165.0,484.0 159.6,483.8 152.7,482.7 147.0,481.4 144.2,480.5 143.4,480.2 143.4,480.2 143.4,480.2 143.5,480.1 143.5,480.4 143.6,480.1 143.7,480.2 143.7,480.3 143.8,480.5 143.8,480.6 143.8,481.0 143.8,481.3 143.7,481.7 143.7,482.1 143.6,482.6 143.5,483.2 143.5,483.7 143.4,484.3 143.3,485.0 143.2,485.7 143.0,486.4 142.9,487.2 142.7,488.1 142.6,488.9 142.4,489.8 142.2,490.6 142.1,491.6 141.9,492.6 141.8,493.5 141.6,494.7 141.4,495.7 141.3,496.9 141.1,497.8 140.9,499.0 140.7,500.2 140.6,501.3 140.9,502.6 142.0,504.3 144.3,506.3 147.3,508.2 150.6,510.2 153.9,511.9 155.5,513.3 155.9,514.9 156.2,515.8 156.3,517.2 156.3,518.4 156.4,519.6 156.5,520.8 156.6,522.0 156.7,523.5 156.8,524.7 156.9,526.1 157.0,527.6 157.1,528.9 157.2,530.2 157.3,531.8 157.4,533.1 157.5,534.6 157.6,535.8 157.7,537.3 157.8,538.9 157.9,540.4 158.0,541.8 158.1,543.4 158.2,544.9 158.3,546.3 158.4,547.9 158.5,549.3 158.6,551.1 158.6,552.5 158.7,554.2 158.8,555.8 158.9,557.3 159.0,558.9 159.3,560.3 160.2,562.0 161.4,563.8 163.2,565.6 165.3,567.2 167.7,568.6 169.9,570.1 172.0,571.3 174.1,572.8 176.2,574.1 178.4,575.1 180.5,576.2 182.7,577.4 184.9,578.4 186.6,579.3 188.5,580.6 189.3,581.6 190.0,582.9 190.6,584.1 191.1,585.4 191.6,586.7 192.2,588.1 192.8,589.4 193.4,590.8 193.9,591.9 194.5,593.4 195.0,594.7 195.6,596.1 196.2,597.6 196.9,599.1 197.5,600.5 198.1,601.9 198.7,603.2 199.3,604.7 199.9,605.9 200.5,607.5 201.1,608.9 201.8,610.4 202.3,611.8 202.9,613.2 203.6,614.7 204.1,615.9 204.8,617.5 205.4,619.0 206.1,620.5 206.6,621.8 207.3,623.3 207.8,624.6 208.3,625.8 208.8,627.0 209.3,628.2 209.6,629.0 210.1,630.0 210.4,630.7 210.7,631.5 211.0,632.2 211.3,632.8 211.4,633.2 211.6,633.6 211.7,633.8 211.8,634.1 211.8,634.2" fill="none" stroke="#d95f02" stroke-width="3" stroke-linejoin="round" stroke-linecap="round" opacity="0.9"/>
  <line x1="197.2" y1="608.1" x2="161.6" y2="670.0" stroke="#777" stroke-width="1.5" stroke-dasharray="5 5"/>
  <line x1="193.4" y1="565.2" x2="211.8" y2="634.2" stroke="#777" stroke-width="1.5" stroke-dasharray="5 5"/>
  <circle cx="197.2" cy="608.1" r="5" fill="#1a9850"/>
  <circle cx="193.4" cy="565.2" r="5" fill="#d73027"/>
  <circle cx="161.6" cy="670.0" r="5" fill="#1a9850"/>
  <circle cx="211.8" cy="634.2" r="5" fill="#d73027"/>
  <rect x="80" y="692" width="18" height="4" fill="#1b6ca8"/>
  <text x="108" y="699" font-family="Arial, sans-serif" font-size="13" fill="#333">drone GNSS path, length 874.8 m</text>
  <rect x="340" y="692" width="18" height="4" fill="#d95f02"/>
  <text x="368" y="699" font-family="Arial, sans-serif" font-size="13" fill="#333">projected camera-center ground path, length 1483.5 m</text>
  <text x="80" y="725" font-family="Arial, sans-serif" font-size="13" fill="#555">Projection assumes flat local ground and uses the camera center ray from DJI metadata when available.</text>
</svg>
