<svg xmlns="http://www.w3.org/2000/svg" width="980" height="780" viewBox="0 0 980 780">
  <rect width="100%" height="100%" fill="#f9f9f6"/>
  <rect x="80" y="80" width="820" height="510" fill="#ffffff" stroke="#cccccc" stroke-width="1"/>
  <text x="80" y="38" font-family="Arial, sans-serif" font-size="20" font-weight="700" fill="#202020">Preliminary experiment — v14 path comparison (camera angle 60°)</text>
  <text x="80" y="62" font-family="Arial, sans-serif" font-size="13" fill="#555">115 query frames | mean error 18.8 m | median 15.2 m | P90 36.1 m</text>
  <polyline points="80.0,220.9 80.0,221.1 80.1,221.1 80.3,221.1 80.4,221.2 80.6,221.2 80.9,221.4 81.1,221.5 81.5,221.7 81.8,221.8 82.3,222.0 82.7,222.3 83.2,222.4 83.7,222.7 84.3,222.9 85.0,223.2 85.6,223.5 86.4,223.8 87.1,224.2 87.9,224.5 88.8,225.0 89.7,225.3 90.7,225.8 91.6,226.2 92.8,226.7 93.8,227.1 94.9,227.7 96.1,228.2 97.4,228.8 98.6,229.4 99.9,229.8 101.2,230.4 102.6,231.0 103.9,231.6 105.3,232.2 106.5,232.8 108.0,233.4 109.2,234.0 110.6,234.6 111.9,235.2 113.3,235.8 114.6,236.4 115.9,237.1 117.3,237.7 118.5,238.3 119.8,238.9 121.2,239.5 122.5,239.9 123.9,240.5 125.2,241.1 126.6,241.7 127.9,242.3 129.3,242.9 130.5,243.5 131.9,244.1 133.2,244.7 134.5,245.3 135.8,245.9 137.2,246.5 138.5,247.1 139.9,247.7 141.1,248.2 142.5,248.8 143.8,249.4 145.1,250.0 146.4,250.6 147.8,251.2 149.1,251.8 150.5,252.4 151.7,253.0 153.1,253.6 154.4,254.1 155.8,254.7 157.1,255.3 158.4,255.9 159.6,256.5 161.0,257.1 162.3,257.7 163.7,258.3 165.0,258.9 166.3,259.5 167.6,260.0 169.0,260.6 170.2,261.2 171.5,261.8 172.8,262.4 174.1,263.0 175.5,263.6 176.7,264.2 178.0,264.8 179.4,265.4 180.7,265.8 182.0,266.4 183.3,267.0 184.7,267.6 185.9,268.2 187.2,268.8 188.5,269.3 189.8,269.9 191.2,270.5 192.4,271.1 193.9,271.7 195.1,272.3 196.4,272.9 197.8,273.5 199.1,274.1 200.5,274.7 201.8,275.3 203.0,275.9 204.3,276.5 205.7,277.1 207.0,277.7 208.3,278.3 209.7,278.9 211.0,279.5 212.2,280.0 213.6,280.6 214.9,281.2 216.2,281.8 217.5,282.4 218.9,283.0 220.1,283.6 221.6,284.1 222.8,284.7 224.1,285.3 225.4,285.9 226.8,286.5 228.1,287.1 229.5,287.7 230.7,288.3 232.1,288.9 233.4,289.5 234.8,290.1 236.1,290.5 237.4,291.1 238.7,291.7 240.1,292.4 241.3,293.0 242.7,293.6 244.0,294.2 245.3,294.8 246.6,295.4 248.0,296.0 249.2,296.4 250.5,297.0 251.8,297.6 253.2,298.2 254.4,298.8 255.8,299.4 257.0,299.9 258.3,300.5 259.6,301.1 261.0,301.7 262.3,302.3 263.5,302.7 264.8,303.4 266.2,304.0 267.5,304.6 268.8,305.2 270.1,305.8 271.3,306.4 272.6,306.8 274.0,307.4 275.3,308.0 276.6,308.6 277.8,309.2 279.2,309.8 280.5,310.4 281.8,311.0 283.1,311.5 284.5,312.1 285.8,312.7 287.0,313.3 288.3,313.9 289.7,314.5 291.0,315.0 292.3,315.6 293.5,316.2 294.9,316.8 296.2,317.4 297.5,318.0 298.8,318.4 300.0,319.0 301.3,319.6 302.7,320.2 304.0,320.8 305.3,321.4 306.6,321.9 307.8,322.5 309.1,323.1 310.5,323.7 311.7,324.3 313.1,324.9 314.3,325.4 315.6,326.0 316.9,326.6 318.3,327.2 319.4,327.6 320.7,328.2 322.1,328.8 323.4,329.4 324.7,330.0 326.1,330.5 327.2,331.1 328.6,331.7 329.9,332.3 331.2,332.9 332.5,333.3 333.7,333.9 335.1,334.5 336.4,335.1 337.7,335.7 339.0,336.2 340.3,336.8 341.7,337.4 342.9,338.0 344.2,338.6 345.5,339.2 346.9,339.8 348.2,340.3 349.4,340.9 350.7,341.5 352.1,342.1 353.4,342.7 354.7,343.3 356.0,343.9 357.4,344.3 358.6,344.9 359.9,345.5 361.2,346.1 362.6,346.7 363.9,347.3 365.1,348.0 366.4,348.4 367.8,349.0 369.1,349.6 370.4,350.2 371.7,350.8 373.1,351.4 374.3,352.0 375.7,352.6 377.0,353.1 378.3,353.7 379.6,354.3 381.0,354.9 382.2,355.5 383.5,356.1 384.8,356.7 386.2,357.3 387.5,357.7 388.9,358.3 390.2,359.0 391.4,359.6 392.7,360.2 394.1,360.8 395.4,361.2 396.7,361.8 397.9,362.4 399.3,363.0 400.6,363.6 401.9,364.2 403.2,364.7 404.6,365.3 405.9,365.9 407.3,366.5 408.5,367.1 409.8,367.7 411.1,368.3 412.5,368.9 413.8,369.3 415.0,370.0 416.3,370.6 417.7,371.2 419.0,371.8 420.3,372.4 421.6,372.8 423.0,373.4 424.2,374.0 425.5,374.6 426.8,375.2 428.2,375.8 429.5,376.4 430.7,377.0 432.0,377.5 433.4,378.1 434.7,378.7 436.0,379.3 437.3,379.9 438.7,380.5 439.9,381.0 441.2,381.6 442.5,382.2 443.9,382.8 445.2,383.4 446.4,384.0 447.7,384.4 449.1,385.0 450.4,385.6 451.7,386.2 453.0,386.8 454.4,387.4 455.6,388.0 456.9,388.6 458.2,389.1 459.6,389.7 460.9,390.3 462.1,390.9 463.4,391.5 464.8,392.1 466.1,392.6 467.4,393.2 468.7,393.8 470.1,394.4 471.3,395.0 472.6,395.6 473.9,396.0 475.3,396.6 476.6,397.2 477.8,397.8 479.1,398.4 480.5,399.0 481.8,399.6 483.1,400.2 484.4,400.7 485.8,401.3 487.0,401.9 488.3,402.5 489.6,403.1 491.0,403.7 492.3,404.2 493.5,404.8 494.8,405.4 496.2,406.0 497.5,406.6 498.8,407.2 500.1,407.8 501.5,408.4 502.7,408.8 504.0,409.4 505.3,410.0 506.7,410.6 508.0,411.2 509.2,411.7 510.5,412.3 511.9,412.9 513.2,413.5 514.5,414.1 515.8,414.7 517.2,415.3 518.4,415.8 519.7,416.4 521.0,417.0 522.4,417.6 523.5,418.2 524.9,418.8 526.2,419.2 527.5,419.8 528.8,420.4 530.2,421.0 531.5,421.5 532.7,422.1 534.0,422.7 535.4,423.3 536.7,423.9 538.0,424.5 539.2,424.9 540.6,425.6 541.9,426.2 543.2,426.8 544.5,427.4 545.9,428.0 547.2,428.4 548.4,429.0 549.7,429.6 551.1,430.2 552.4,430.8 553.7,431.4 554.9,432.0 556.3,432.6 557.6,433.1 558.9,433.7 560.2,434.3 561.6,434.9 562.9,435.5 564.1,435.9 565.4,436.6 566.8,437.2 568.1,437.8 569.4,438.4 570.6,438.8 571.9,439.4 573.2,440.0 574.6,440.6 575.9,441.2 577.1,441.8 578.4,442.3 579.7,442.9 581.0,443.5 582.4,444.1 583.7,444.7 584.9,445.3 586.2,445.7 587.5,446.3 588.8,446.9 590.2,447.6 591.4,448.2 592.7,448.8 594.0,449.2 595.4,449.8 596.7,450.4 598.0,451.0 599.2,451.6 600.5,452.2 601.8,452.7 603.2,453.3 604.5,453.9 605.7,454.5 607.0,455.1 608.4,455.7 609.7,456.1 611.0,456.7 612.2,457.3 613.7,457.9 614.9,458.4 616.2,459.0 617.5,459.6 618.9,460.2 620.2,460.8 621.4,461.4 622.7,462.0 624.0,462.6 625.3,463.1 626.7,463.7 627.9,464.3 629.2,464.9 630.5,465.5 631.9,466.1 633.2,466.7 634.5,467.3 635.7,467.7 637.0,468.3 638.3,468.9 639.7,469.6 641.0,470.0 642.2,470.6 643.5,471.2 644.9,471.8 646.2,472.4 647.5,473.0 648.8,473.5 650.0,474.1 651.3,474.7 652.7,475.3 654.0,475.9 655.3,476.5 656.5,476.9 657.8,477.5 659.1,478.1 660.5,478.7 661.8,479.3 663.0,479.9 664.3,480.4 665.7,481.0 667.0,481.6 668.3,482.2 669.6,482.8 671.0,483.3 672.2,483.9 673.5,484.5 674.8,485.1 676.1,485.7 677.3,486.1 678.7,486.7 680.0,487.3 681.3,487.9 682.6,488.5 684.0,489.0 685.1,489.6 686.5,490.2 687.8,490.8 689.1,491.4 690.4,491.9 691.8,492.5 693.0,493.1 694.3,493.7 695.6,494.3 696.9,494.9 698.1,495.3 699.6,495.9 700.8,496.5 702.1,497.1 703.4,497.6 704.8,498.2 705.9,498.8 707.3,499.4 708.6,500.0 709.9,500.6 711.2,501.0 712.6,501.6 713.8,502.2 715.1,502.9 716.4,503.5 717.8,504.1 719.0,504.5 720.4,505.1 721.6,505.7 722.9,506.3 724.2,506.9 725.6,507.4 726.9,508.0 728.1,508.6 729.4,509.2 730.7,509.8 732.0,510.4 733.4,511.0 734.7,511.4 735.9,512.0 737.2,512.6 738.6,513.2 739.9,513.7 741.2,514.3 742.4,514.9 743.8,515.5 745.1,516.1 746.4,516.7 747.7,517.2 748.9,517.8 750.2,518.4 751.6,519.0 752.9,519.6 754.2,520.2 755.5,520.8 756.7,521.4 758.0,521.8 759.4,522.4 760.7,523.0 762.0,523.6 763.2,524.2 764.6,524.9 765.8,525.5 767.2,525.9 768.5,526.5 769.8,527.1 771.0,527.7 772.3,528.2 773.5,528.8 774.7,529.2 775.9,529.8 777.0,530.3 778.0,530.7 779.2,531.3 780.2,531.8 781.1,532.2 782.1,532.5 783.0,533.0 783.9,533.4 784.8,533.7 785.6,534.2 786.3,534.5 787.1,534.8 787.9,535.2 788.5,535.5 789.3,535.9 789.8,536.0 790.4,536.3 791.1,536.6 791.6,536.8 792.1,537.1 792.6,537.2 793.0,537.5 793.5,537.7 793.9,537.8 794.3,538.0 794.5,538.1 794.9,538.3 795.3,538.4 795.7,538.6 796.0,538.7 796.4,538.9 796.7,539.0 797.1,539.2 797.5,539.3 797.8,539.5 798.2,539.6 798.6,539.9 798.9,540.1 799.2,540.2 799.6,540.4 800.0,540.5 800.4,540.7 800.8,540.8 801.2,541.0 801.4,541.1 801.8,541.3 802.2,541.4 802.6,541.6 802.9,541.7 803.3,541.9 803.7,542.0 804.0,542.2 804.3,542.3 804.6,542.5 804.9,542.6 805.1,542.8 805.5,542.9 805.6,542.9 806.0,543.1 806.3,543.2 806.5,543.4 806.8,543.5 807.0,543.7 807.3,543.7 807.5,543.8 807.8,544.0 808.0,544.1 808.3,544.1 808.6,544.3 808.8,544.4 808.9,544.4 809.2,544.6 809.4,544.7 809.7,544.7 810.0,544.9 810.3,545.0 810.6,545.2 810.9,545.2 811.1,545.3 811.5,545.5 811.7,545.6 812.0,545.6 812.3,545.8 812.5,545.9 812.8,546.1 813.0,546.2 813.3,546.2 813.5,546.4 813.9,546.5 814.2,546.7 814.4,546.8 814.8,547.0 815.1,547.2 815.3,547.3 815.7,547.5 816.0,547.6 816.2,547.6 816.6,547.8 816.9,547.9 817.1,548.1 817.4,548.2 817.7,548.4 818.1,548.5 818.4,548.7 818.8,548.8 819.0,548.8 819.3,549.0 819.7,549.1 819.9,549.3 820.2,549.4 820.6,549.6 820.8,549.7 821.1,549.9 821.4,550.0 821.8,550.2 822.2,550.3 822.5,550.5 822.9,550.5 823.2,550.6 823.5,550.8 823.9,550.9 824.0,550.9 824.3,551.1 824.4,551.1 824.5,551.1 824.5,551.2 824.6,551.2 824.4,551.2 824.6,551.4 824.8,551.1 824.9,550.9 825.0,550.8 825.0,550.6 825.3,550.3 825.4,550.2 825.5,549.9 825.7,549.6 825.8,549.4 825.9,549.1 826.0,549.0 826.0,548.8 826.2,548.8 826.2,548.7 826.0,549.1 826.2,549.0 826.3,549.1 826.3,549.0 826.2,549.1 826.3,549.3 826.4,549.4 826.4,549.6 826.6,549.7 826.7,549.9 826.8,550.0 827.1,550.2 827.2,550.5 827.3,550.6 827.4,550.8 827.6,550.9 827.8,551.1 828.0,551.2 828.0,551.4 828.1,551.5 828.2,551.7 828.2,551.8 828.3,551.8 828.3,552.0 828.5,552.0 828.5,552.1 828.6,552.3 828.6,552.4 828.7,552.6 828.7,552.7 828.8,552.7 828.6,552.7 828.5,552.9 828.3,552.9 828.1,553.0 828.0,553.2 827.8,553.2 827.6,553.3 827.4,553.3 827.3,553.5 827.2,553.5 827.1,553.6 827.3,553.3 827.6,553.2 827.8,553.0 828.0,552.9 828.2,552.7 828.5,552.4 828.7,552.3 829.0,552.1 829.2,552.0 829.4,552.0 829.5,551.8 829.6,551.8 829.6,551.7 829.7,551.7 829.7,551.5 829.9,551.4 830.0,551.4 830.1,551.2 830.3,551.1 830.4,551.1 830.5,551.1 830.6,551.2 830.8,551.4 830.9,551.5 831.1,551.7 831.3,552.0 831.5,552.3 831.7,552.6 831.9,552.9 832.2,553.3 832.4,553.6 832.7,554.1 832.9,554.5 833.2,554.8 833.4,555.3 833.7,555.6 833.8,555.7 834.0,556.0 834.1,556.2 834.1,556.3 834.2,556.3 834.2,556.5 834.2,556.6 834.1,556.6 834.0,556.6 833.8,556.6 833.8,556.5 834.0,556.5 834.1,556.5 833.8,556.8 833.7,556.9 833.6,557.1 833.4,557.2 833.3,557.2 833.3,557.4 833.2,557.4 833.1,557.5 833.1,557.7 832.9,557.7 833.2,557.7 833.2,557.8 833.3,557.8 833.3,558.0 833.4,558.0 833.4,558.2 833.6,558.2 833.6,558.3 833.7,558.5 833.7,558.6 833.8,558.6 833.8,558.8 834.0,558.9 834.1,559.1 834.2,559.2 834.2,559.4 834.3,559.4 834.3,559.5 834.3,559.7 834.2,559.8 834.1,560.0 834.0,560.1 833.8,560.3 833.7,560.4 833.7,560.6 833.6,560.6 833.4,560.6 833.4,560.4 833.6,560.4" fill="none" stroke="#1b6ca8" stroke-width="2.5" stroke-linejoin="round" stroke-linecap="round" stroke-dasharray="6 4" opacity="0.7"/>
  <polyline points="162.6,262.7 165.9,260.3 172.4,262.3 183.1,267.0 196.5,272.7 209.6,279.0 222.8,285.0 236.3,290.5 249.5,296.7 262.6,302.3 275.6,308.3 288.6,314.7 302.0,320.0 315.3,325.7 328.7,331.5 341.6,337.5 354.6,343.4 367.7,349.0 380.7,355.0 393.7,360.5 406.8,366.1 419.8,371.8 432.7,377.9 445.6,384.1 459.0,389.4 472.1,395.1 485.3,401.0 498.4,406.9 511.4,412.7 524.5,418.5 537.5,424.3 550.7,430.1 563.7,435.9 576.9,441.7 589.9,447.5 603.2,452.9 616.0,459.1 629.1,464.9 642.4,470.2 655.2,476.5 668.2,482.3 681.4,487.7 694.2,493.8 707.2,499.7 720.4,505.0 733.3,511.1 746.3,517.0 759.5,522.3 772.5,528.0 785.5,533.8 798.5,539.5 811.6,545.2 824.4,551.4 837.2,557.8 850.4,563.0 862.8,567.9 871.4,573.0 877.7,574.8 881.8,575.4 885.2,577.6 888.3,580.0 889.5,581.6 892.3,578.1 892.9,580.4 893.0,583.9 895.1,583.4 898.0,581.3 900.0,581.9 898.3,581.7 895.9,580.7 893.9,579.8 891.8,579.0 889.7,578.1 887.5,577.2 885.4,576.5 883.2,575.5 881.0,574.6 857.4,500.8 854.6,499.9 853.3,502.2 852.2,504.3 851.2,506.4 849.9,508.4 848.7,510.3 847.5,512.4 846.3,514.4 845.0,516.3 843.8,518.3 846.9,575.3 846.3,575.5 844.4,575.6 843.4,574.3 841.9,572.3 839.2,571.1 843.1,541.7 842.7,541.4 841.5,542.5 839.7,561.4 840.4,565.5 841.3,568.3 840.5,567.2 839.0,565.2 838.0,563.2 837.5,563.6 836.8,563.8 835.7,561.9 835.2,561.0 835.7,561.9 836.2,562.7 835.5,563.5 834.6,562.2 834.1,561.2 833.9,560.9 833.6,560.6 833.4,560.4" fill="none" stroke="#1a9850" stroke-width="2.5" stroke-linejoin="round" stroke-linecap="round" opacity="1.0"/>
  <polyline points="157.2,271.7 157.2,271.7 157.2,271.7 157.2,271.7 157.2,271.7 157.2,271.7 157.2,271.7 157.2,271.7 157.2,271.7 221.3,313.9 232.5,337.6 278.0,377.3 326.1,355.8 323.7,369.1 349.0,427.6 349.0,427.6 371.9,397.4 371.9,397.4 383.7,372.4 394.3,360.2 419.4,353.3 419.4,353.3 433.6,356.7 447.4,365.8 459.8,361.8 459.8,361.8 459.8,361.8 459.8,361.8 489.6,456.4 516.0,460.2 529.4,461.9 543.0,463.6 569.9,467.9 583.3,469.8 596.8,471.1 596.8,471.1 623.8,473.5 636.9,477.9 636.9,477.9 648.0,489.5 656.5,505.8 672.4,528.1 672.4,528.1 704.8,523.4 722.9,502.3 734.8,510.5 745.4,522.8 745.4,522.8 755.5,542.1 784.7,529.5 797.6,533.0 810.9,535.5 810.9,535.5 824.0,538.4 850.6,544.3 863.8,547.4 877.1,549.8 863.8,547.4 877.1,549.8 871.6,581.1 884.3,585.5 884.3,585.5 884.3,585.5 884.3,585.5 884.3,585.5 897.0,590.0 897.0,590.0 897.0,590.0 897.0,590.0 884.3,585.5 884.3,585.5 884.3,585.5 884.3,585.5 871.6,581.1 871.6,581.1 871.6,581.1 858.7,576.8 850.6,544.3 854.4,507.5 811.4,491.8 819.5,515.6 818.7,513.4 819.5,515.6 819.5,515.6 819.9,518.3 819.9,518.3 821.2,522.8 822.8,527.0 822.0,524.9 824.0,532.1 824.9,537.4 824.9,537.4 824.9,539.9 825.2,542.0 825.7,544.0 826.1,546.0 826.1,546.0 826.1,546.0 826.1,546.0 826.1,546.0 827.3,550.3 827.9,552.4 828.6,554.6 828.6,554.6 829.2,556.5 829.8,558.4 839.4,558.5 829.8,558.4 829.8,558.4 839.1,558.6 829.5,558.4 836.7,563.0 836.7,563.0 836.7,563.0 836.7,563.0" fill="none" stroke="#d73027" stroke-width="2.5" stroke-linejoin="round" stroke-linecap="round" opacity="1.0"/>
  <circle cx="80.0" cy="220.9" r="5" fill="#1b6ca8"/>
  <circle cx="833.6" cy="560.4" r="5" fill="#1b6ca8"/>
  <circle cx="162.6" cy="262.7" r="5" fill="#1a9850"/>
  <circle cx="833.4" cy="560.4" r="5" fill="#1a9850"/>
  <circle cx="157.2" cy="271.7" r="5" fill="#d73027"/>
  <circle cx="836.7" cy="563.0" r="5" fill="#d73027"/>
  <line x1="162.6" y1="262.7" x2="157.2" y2="271.7" stroke="#888" stroke-width="1" opacity="0.23"/>
  <line x1="165.9" y1="260.3" x2="157.2" y2="271.7" stroke="#888" stroke-width="1" opacity="0.28"/>
  <line x1="172.4" y1="262.3" x2="157.2" y2="271.7" stroke="#888" stroke-width="1" opacity="0.32"/>
  <line x1="183.1" y1="267.0" x2="157.2" y2="271.7" stroke="#888" stroke-width="1" opacity="0.42"/>
  <line x1="196.5" y1="272.7" x2="157.2" y2="271.7" stroke="#888" stroke-width="1" opacity="0.58"/>
  <line x1="209.6" y1="279.0" x2="157.2" y2="271.7" stroke="#888" stroke-width="1" opacity="0.60"/>
  <line x1="222.8" y1="285.0" x2="157.2" y2="271.7" stroke="#888" stroke-width="1" opacity="0.60"/>
  <line x1="236.3" y1="290.5" x2="157.2" y2="271.7" stroke="#888" stroke-width="1" opacity="0.60"/>
  <line x1="249.5" y1="296.7" x2="157.2" y2="271.7" stroke="#888" stroke-width="1" opacity="0.60"/>
  <line x1="262.6" y1="302.3" x2="221.3" y2="313.9" stroke="#888" stroke-width="1" opacity="0.60"/>
  <line x1="275.6" y1="308.3" x2="232.5" y2="337.6" stroke="#888" stroke-width="1" opacity="0.60"/>
  <line x1="288.6" y1="314.7" x2="278.0" y2="377.3" stroke="#888" stroke-width="1" opacity="0.60"/>
  <line x1="302.0" y1="320.0" x2="326.1" y2="355.8" stroke="#888" stroke-width="1" opacity="0.60"/>
  <line x1="315.3" y1="325.7" x2="323.7" y2="369.1" stroke="#888" stroke-width="1" opacity="0.60"/>
  <line x1="328.7" y1="331.5" x2="349.0" y2="427.6" stroke="#888" stroke-width="1" opacity="0.60"/>
  <line x1="341.6" y1="337.5" x2="349.0" y2="427.6" stroke="#888" stroke-width="1" opacity="0.60"/>
  <line x1="354.6" y1="343.4" x2="371.9" y2="397.4" stroke="#888" stroke-width="1" opacity="0.60"/>
  <line x1="367.7" y1="349.0" x2="371.9" y2="397.4" stroke="#888" stroke-width="1" opacity="0.60"/>
  <line x1="380.7" y1="355.0" x2="383.7" y2="372.4" stroke="#888" stroke-width="1" opacity="0.32"/>
  <line x1="393.7" y1="360.5" x2="394.3" y2="360.2" stroke="#888" stroke-width="1" opacity="0.11"/>
  <line x1="406.8" y1="366.1" x2="419.4" y2="353.3" stroke="#888" stroke-width="1" opacity="0.32"/>
  <line x1="419.8" y1="371.8" x2="419.4" y2="353.3" stroke="#888" stroke-width="1" opacity="0.33"/>
  <line x1="432.7" y1="377.9" x2="433.6" y2="356.7" stroke="#888" stroke-width="1" opacity="0.36"/>
  <line x1="445.6" y1="384.1" x2="447.4" y2="365.8" stroke="#888" stroke-width="1" opacity="0.33"/>
  <line x1="459.0" y1="389.4" x2="459.8" y2="361.8" stroke="#888" stroke-width="1" opacity="0.44"/>
  <line x1="472.1" y1="395.1" x2="459.8" y2="361.8" stroke="#888" stroke-width="1" opacity="0.54"/>
  <line x1="485.3" y1="401.0" x2="459.8" y2="361.8" stroke="#888" stroke-width="1" opacity="0.60"/>
  <line x1="498.4" y1="406.9" x2="459.8" y2="361.8" stroke="#888" stroke-width="1" opacity="0.60"/>
  <line x1="511.4" y1="412.7" x2="489.6" y2="456.4" stroke="#888" stroke-width="1" opacity="0.60"/>
  <line x1="524.5" y1="418.5" x2="516.0" y2="460.2" stroke="#888" stroke-width="1" opacity="0.60"/>
  <line x1="537.5" y1="424.3" x2="529.4" y2="461.9" stroke="#888" stroke-width="1" opacity="0.57"/>
  <line x1="550.7" y1="430.1" x2="543.0" y2="463.6" stroke="#888" stroke-width="1" opacity="0.52"/>
  <line x1="563.7" y1="435.9" x2="569.9" y2="467.9" stroke="#888" stroke-width="1" opacity="0.50"/>
  <line x1="576.9" y1="441.7" x2="583.3" y2="469.8" stroke="#888" stroke-width="1" opacity="0.46"/>
  <line x1="589.9" y1="447.5" x2="596.8" y2="471.1" stroke="#888" stroke-width="1" opacity="0.40"/>
  <line x1="603.2" y1="452.9" x2="596.8" y2="471.1" stroke="#888" stroke-width="1" opacity="0.34"/>
  <line x1="616.0" y1="459.1" x2="623.8" y2="473.5" stroke="#888" stroke-width="1" opacity="0.30"/>
  <line x1="629.1" y1="464.9" x2="636.9" y2="477.9" stroke="#888" stroke-width="1" opacity="0.29"/>
  <line x1="642.4" y1="470.2" x2="636.9" y2="477.9" stroke="#888" stroke-width="1" opacity="0.22"/>
  <line x1="655.2" y1="476.5" x2="648.0" y2="489.5" stroke="#888" stroke-width="1" opacity="0.28"/>
  <line x1="668.2" y1="482.3" x2="656.5" y2="505.8" stroke="#888" stroke-width="1" opacity="0.42"/>
  <line x1="681.4" y1="487.7" x2="672.4" y2="528.1" stroke="#888" stroke-width="1" opacity="0.60"/>
  <line x1="694.2" y1="493.8" x2="672.4" y2="528.1" stroke="#888" stroke-width="1" opacity="0.60"/>
  <line x1="707.2" y1="499.7" x2="704.8" y2="523.4" stroke="#888" stroke-width="1" opacity="0.39"/>
  <line x1="720.4" y1="505.0" x2="722.9" y2="502.3" stroke="#888" stroke-width="1" opacity="0.14"/>
  <line x1="733.3" y1="511.1" x2="734.8" y2="510.5" stroke="#888" stroke-width="1" opacity="0.12"/>
  <line x1="746.3" y1="517.0" x2="745.4" y2="522.8" stroke="#888" stroke-width="1" opacity="0.17"/>
  <line x1="759.5" y1="522.3" x2="745.4" y2="522.8" stroke="#888" stroke-width="1" opacity="0.27"/>
  <line x1="772.5" y1="528.0" x2="755.5" y2="542.1" stroke="#888" stroke-width="1" opacity="0.37"/>
  <line x1="785.5" y1="533.8" x2="784.7" y2="529.5" stroke="#888" stroke-width="1" opacity="0.15"/>
  <line x1="798.5" y1="539.5" x2="797.6" y2="533.0" stroke="#888" stroke-width="1" opacity="0.18"/>
  <line x1="811.6" y1="545.2" x2="810.9" y2="535.5" stroke="#888" stroke-width="1" opacity="0.22"/>
  <line x1="824.4" y1="551.4" x2="810.9" y2="535.5" stroke="#888" stroke-width="1" opacity="0.36"/>
  <line x1="837.2" y1="557.8" x2="824.0" y2="538.4" stroke="#888" stroke-width="1" opacity="0.39"/>
  <line x1="850.4" y1="563.0" x2="850.6" y2="544.3" stroke="#888" stroke-width="1" opacity="0.33"/>
  <line x1="862.8" y1="567.9" x2="863.8" y2="547.4" stroke="#888" stroke-width="1" opacity="0.35"/>
  <line x1="871.4" y1="573.0" x2="877.1" y2="549.8" stroke="#888" stroke-width="1" opacity="0.39"/>
  <line x1="877.7" y1="574.8" x2="863.8" y2="547.4" stroke="#888" stroke-width="1" opacity="0.48"/>
  <line x1="881.8" y1="575.4" x2="877.1" y2="549.8" stroke="#888" stroke-width="1" opacity="0.42"/>
  <line x1="885.2" y1="577.6" x2="871.6" y2="581.1" stroke="#888" stroke-width="1" opacity="0.27"/>
  <line x1="888.3" y1="580.0" x2="884.3" y2="585.5" stroke="#888" stroke-width="1" opacity="0.18"/>
  <line x1="889.5" y1="581.6" x2="884.3" y2="585.5" stroke="#888" stroke-width="1" opacity="0.18"/>
  <line x1="892.3" y1="578.1" x2="884.3" y2="585.5" stroke="#888" stroke-width="1" opacity="0.23"/>
  <line x1="892.9" y1="580.4" x2="884.3" y2="585.5" stroke="#888" stroke-width="1" opacity="0.22"/>
  <line x1="893.0" y1="583.9" x2="884.3" y2="585.5" stroke="#888" stroke-width="1" opacity="0.21"/>
  <line x1="895.1" y1="583.4" x2="897.0" y2="590.0" stroke="#888" stroke-width="1" opacity="0.19"/>
  <line x1="898.0" y1="581.3" x2="897.0" y2="590.0" stroke="#888" stroke-width="1" opacity="0.21"/>
  <line x1="900.0" y1="581.9" x2="897.0" y2="590.0" stroke="#888" stroke-width="1" opacity="0.21"/>
  <line x1="898.3" y1="581.7" x2="897.0" y2="590.0" stroke="#888" stroke-width="1" opacity="0.20"/>
  <line x1="895.9" y1="580.7" x2="884.3" y2="585.5" stroke="#888" stroke-width="1" opacity="0.25"/>
  <line x1="893.9" y1="579.8" x2="884.3" y2="585.5" stroke="#888" stroke-width="1" opacity="0.24"/>
  <line x1="891.8" y1="579.0" x2="884.3" y2="585.5" stroke="#888" stroke-width="1" opacity="0.22"/>
  <line x1="889.7" y1="578.1" x2="884.3" y2="585.5" stroke="#888" stroke-width="1" opacity="0.21"/>
  <line x1="887.5" y1="577.2" x2="871.6" y2="581.1" stroke="#888" stroke-width="1" opacity="0.30"/>
  <line x1="885.4" y1="576.5" x2="871.6" y2="581.1" stroke="#888" stroke-width="1" opacity="0.28"/>
  <line x1="883.2" y1="575.5" x2="871.6" y2="581.1" stroke="#888" stroke-width="1" opacity="0.26"/>
  <line x1="881.0" y1="574.6" x2="858.7" y2="576.8" stroke="#888" stroke-width="1" opacity="0.38"/>
  <line x1="857.4" y1="500.8" x2="850.6" y2="544.3" stroke="#888" stroke-width="1" opacity="0.60"/>
  <line x1="854.6" y1="499.9" x2="854.4" y2="507.5" stroke="#888" stroke-width="1" opacity="0.19"/>
  <line x1="853.3" y1="502.2" x2="811.4" y2="491.8" stroke="#888" stroke-width="1" opacity="0.60"/>
  <line x1="852.2" y1="504.3" x2="819.5" y2="515.6" stroke="#888" stroke-width="1" opacity="0.53"/>
  <line x1="851.2" y1="506.4" x2="818.7" y2="513.4" stroke="#888" stroke-width="1" opacity="0.51"/>
  <line x1="849.9" y1="508.4" x2="819.5" y2="515.6" stroke="#888" stroke-width="1" opacity="0.49"/>
  <line x1="848.7" y1="510.3" x2="819.5" y2="515.6" stroke="#888" stroke-width="1" opacity="0.46"/>
  <line x1="847.5" y1="512.4" x2="819.9" y2="518.3" stroke="#888" stroke-width="1" opacity="0.45"/>
  <line x1="846.3" y1="514.4" x2="819.9" y2="518.3" stroke="#888" stroke-width="1" opacity="0.43"/>
  <line x1="845.0" y1="516.3" x2="821.2" y2="522.8" stroke="#888" stroke-width="1" opacity="0.40"/>
  <line x1="843.8" y1="518.3" x2="822.8" y2="527.0" stroke="#888" stroke-width="1" opacity="0.38"/>
  <line x1="846.9" y1="575.3" x2="822.0" y2="524.9" stroke="#888" stroke-width="1" opacity="0.60"/>
  <line x1="846.3" y1="575.5" x2="824.0" y2="532.1" stroke="#888" stroke-width="1" opacity="0.60"/>
  <line x1="844.4" y1="575.6" x2="824.9" y2="537.4" stroke="#888" stroke-width="1" opacity="0.60"/>
  <line x1="843.4" y1="574.3" x2="824.9" y2="537.4" stroke="#888" stroke-width="1" opacity="0.60"/>
  <line x1="841.9" y1="572.3" x2="824.9" y2="539.9" stroke="#888" stroke-width="1" opacity="0.55"/>
  <line x1="839.2" y1="571.1" x2="825.2" y2="542.0" stroke="#888" stroke-width="1" opacity="0.50"/>
  <line x1="843.1" y1="541.7" x2="825.7" y2="544.0" stroke="#888" stroke-width="1" opacity="0.32"/>
  <line x1="842.7" y1="541.4" x2="826.1" y2="546.0" stroke="#888" stroke-width="1" opacity="0.31"/>
  <line x1="841.5" y1="542.5" x2="826.1" y2="546.0" stroke="#888" stroke-width="1" opacity="0.29"/>
  <line x1="839.7" y1="561.4" x2="826.1" y2="546.0" stroke="#888" stroke-width="1" opacity="0.35"/>
  <line x1="840.4" y1="565.5" x2="826.1" y2="546.0" stroke="#888" stroke-width="1" opacity="0.40"/>
  <line x1="841.3" y1="568.3" x2="826.1" y2="546.0" stroke="#888" stroke-width="1" opacity="0.43"/>
  <line x1="840.5" y1="567.2" x2="827.3" y2="550.3" stroke="#888" stroke-width="1" opacity="0.36"/>
  <line x1="839.0" y1="565.2" x2="827.9" y2="552.4" stroke="#888" stroke-width="1" opacity="0.31"/>
  <line x1="838.0" y1="563.2" x2="828.6" y2="554.6" stroke="#888" stroke-width="1" opacity="0.26"/>
  <line x1="837.5" y1="563.6" x2="828.6" y2="554.6" stroke="#888" stroke-width="1" opacity="0.26"/>
  <line x1="836.8" y1="563.8" x2="829.2" y2="556.5" stroke="#888" stroke-width="1" opacity="0.23"/>
  <line x1="835.7" y1="561.9" x2="829.8" y2="558.4" stroke="#888" stroke-width="1" opacity="0.18"/>
  <line x1="835.2" y1="561.0" x2="839.4" y2="558.5" stroke="#888" stroke-width="1" opacity="0.16"/>
  <line x1="835.7" y1="561.9" x2="829.8" y2="558.4" stroke="#888" stroke-width="1" opacity="0.18"/>
  <line x1="836.2" y1="562.7" x2="829.8" y2="558.4" stroke="#888" stroke-width="1" opacity="0.20"/>
  <line x1="835.5" y1="563.5" x2="839.1" y2="558.6" stroke="#888" stroke-width="1" opacity="0.17"/>
  <line x1="834.6" y1="562.2" x2="829.5" y2="558.4" stroke="#888" stroke-width="1" opacity="0.18"/>
  <line x1="834.1" y1="561.2" x2="836.7" y2="563.0" stroke="#888" stroke-width="1" opacity="0.14"/>
  <line x1="833.9" y1="560.9" x2="836.7" y2="563.0" stroke="#888" stroke-width="1" opacity="0.14"/>
  <line x1="833.6" y1="560.6" x2="836.7" y2="563.0" stroke="#888" stroke-width="1" opacity="0.15"/>
  <line x1="833.4" y1="560.4" x2="836.7" y2="563.0" stroke="#888" stroke-width="1" opacity="0.15"/>
  <line x1="80" y1="696" x2="104" y2="696" stroke="#1b6ca8" stroke-width="3" stroke-dasharray="6 4"/><text x="112" y="700" font-family="Arial, sans-serif" font-size="13" fill="#333">Drone GNSS path (SRT)</text>
  <line x1="340" y1="696" x2="364" y2="696" stroke="#1a9850" stroke-width="3"/><text x="372" y="700" font-family="Arial, sans-serif" font-size="13" fill="#333">Ground-truth camera-center (geometry)</text>
  <line x1="640" y1="696" x2="664" y2="696" stroke="#d73027" stroke-width="3"/><text x="672" y="700" font-family="Arial, sans-serif" font-size="13" fill="#333">Estimated camera-center (pipeline)</text>
  <text x="80" y="728" font-family="Arial, sans-serif" font-size="12" fill="#777">Grey lines connect ground-truth to estimated camera-center per frame. Darker = larger error. Local XY coordinates in metres (origin = first SRT point).</text>
  <line x1="822.3" y1="560" x2="890.0" y2="560" stroke="#444" stroke-width="2"/>
  <text x="856.2" y="554" font-family="Arial, sans-serif" font-size="12" fill="#444" text-anchor="middle">50 m</text>
</svg>
