<svg xmlns="http://www.w3.org/2000/svg" width="980" height="780" viewBox="0 0 980 780">
  <rect width="100%" height="100%" fill="#f9f9f6"/>
  <rect x="80" y="80" width="820" height="510" fill="#ffffff" stroke="#cccccc" stroke-width="1"/>
  <text x="80" y="38" font-family="Arial, sans-serif" font-size="20" font-weight="700" fill="#202020">Preliminary experiment — v14 path comparison (camera angle 60°)</text>
  <text x="80" y="62" font-family="Arial, sans-serif" font-size="13" fill="#555">115 query frames | mean error 14.2 m | median 13.0 m | P90 25.6 m</text>
  <polyline points="80.0,225.5 80.0,225.6 80.1,225.6 80.3,225.6 80.4,225.8 80.6,225.8 80.9,225.9 81.1,226.1 81.5,226.2 81.8,226.4 82.3,226.5 82.7,226.8 83.2,227.0 83.7,227.3 84.3,227.4 85.0,227.7 85.6,228.0 86.4,228.3 87.1,228.8 87.9,229.1 88.8,229.6 89.7,229.9 90.7,230.3 91.6,230.8 92.8,231.2 93.8,231.7 94.9,232.3 96.1,232.7 97.4,233.3 98.6,233.9 99.9,234.4 101.2,235.0 102.6,235.6 103.9,236.2 105.3,236.8 106.5,237.4 108.0,238.0 109.2,238.6 110.6,239.2 111.9,239.8 113.3,240.4 114.6,241.0 115.9,241.6 117.3,242.2 118.5,242.8 119.8,243.4 121.2,244.0 122.5,244.5 123.9,245.1 125.2,245.7 126.6,246.3 127.9,246.9 129.3,247.5 130.5,248.1 131.9,248.7 133.2,249.3 134.5,249.9 135.8,250.5 137.2,251.1 138.5,251.7 139.9,252.3 141.1,252.8 142.5,253.4 143.8,254.0 145.1,254.6 146.4,255.2 147.8,255.8 149.1,256.4 150.5,257.0 151.7,257.6 153.1,258.2 154.4,258.6 155.8,259.2 157.1,259.8 158.4,260.4 159.6,261.0 161.0,261.6 162.3,262.2 163.7,262.9 165.0,263.5 166.3,264.1 167.6,264.5 169.0,265.1 170.2,265.7 171.5,266.3 172.8,266.9 174.1,267.5 175.5,268.1 176.7,268.7 178.0,269.3 179.4,269.9 180.7,270.4 182.0,271.0 183.3,271.6 184.7,272.2 185.9,272.8 187.2,273.4 188.5,273.9 189.8,274.5 191.2,275.1 192.4,275.7 193.9,276.3 195.1,276.9 196.4,277.5 197.8,278.1 199.1,278.7 200.5,279.3 201.8,279.9 203.0,280.5 204.3,281.1 205.7,281.7 207.0,282.3 208.3,282.9 209.7,283.5 211.0,284.1 212.2,284.5 213.6,285.2 214.9,285.8 216.2,286.4 217.5,287.0 218.9,287.6 220.1,288.2 221.6,288.6 222.8,289.2 224.1,289.8 225.4,290.4 226.8,291.0 228.1,291.6 229.5,292.2 230.7,292.8 232.1,293.4 233.4,294.0 234.8,294.6 236.1,295.1 237.4,295.7 238.7,296.3 240.1,296.9 241.3,297.5 242.7,298.1 244.0,298.7 245.3,299.3 246.6,299.9 248.0,300.5 249.2,301.0 250.5,301.6 251.8,302.2 253.2,302.8 254.4,303.4 255.8,304.0 257.0,304.4 258.3,305.0 259.6,305.6 261.0,306.2 262.3,306.8 263.5,307.3 264.8,307.9 266.2,308.5 267.5,309.1 268.8,309.7 270.1,310.3 271.3,310.9 272.6,311.4 274.0,312.0 275.3,312.6 276.6,313.2 277.8,313.8 279.2,314.4 280.5,315.0 281.8,315.6 283.1,316.0 284.5,316.6 285.8,317.2 287.0,317.8 288.3,318.5 289.7,319.1 291.0,319.5 292.3,320.1 293.5,320.7 294.9,321.3 296.2,321.9 297.5,322.5 298.8,323.0 300.0,323.6 301.3,324.2 302.7,324.8 304.0,325.4 305.3,326.0 306.6,326.4 307.8,327.0 309.1,327.6 310.5,328.2 311.7,328.8 313.1,329.5 314.3,329.9 315.6,330.5 316.9,331.1 318.3,331.7 319.4,332.2 320.7,332.8 322.1,333.4 323.4,334.0 324.7,334.6 326.1,335.0 327.2,335.6 328.6,336.2 329.9,336.8 331.2,337.4 332.5,337.9 333.7,338.5 335.1,339.1 336.4,339.7 337.7,340.3 339.0,340.8 340.3,341.4 341.7,342.0 342.9,342.6 344.2,343.2 345.5,343.8 346.9,344.4 348.2,344.8 349.4,345.4 350.7,346.0 352.1,346.6 353.4,347.2 354.7,347.8 356.0,348.4 357.4,348.9 358.6,349.5 359.9,350.1 361.2,350.7 362.6,351.3 363.9,351.9 365.1,352.5 366.4,353.0 367.8,353.6 369.1,354.2 370.4,354.8 371.7,355.4 373.1,356.0 374.3,356.6 375.7,357.2 377.0,357.6 378.3,358.2 379.6,358.8 381.0,359.4 382.2,360.0 383.5,360.6 384.8,361.2 386.2,361.8 387.5,362.3 388.9,362.9 390.2,363.5 391.4,364.1 392.7,364.7 394.1,365.3 395.4,365.8 396.7,366.4 397.9,367.0 399.3,367.6 400.6,368.2 401.9,368.8 403.2,369.2 404.6,369.8 405.9,370.4 407.3,371.0 408.5,371.6 409.8,372.2 411.1,372.8 412.5,373.5 413.8,373.9 415.0,374.5 416.3,375.1 417.7,375.7 419.0,376.3 420.3,376.9 421.6,377.4 423.0,378.0 424.2,378.6 425.5,379.2 426.8,379.8 428.2,380.4 429.5,381.0 430.7,381.6 432.0,382.0 433.4,382.6 434.7,383.2 436.0,383.8 437.3,384.4 438.7,385.1 439.9,385.5 441.2,386.1 442.5,386.7 443.9,387.3 445.2,387.9 446.4,388.5 447.7,389.0 449.1,389.6 450.4,390.2 451.7,390.8 453.0,391.4 454.4,392.0 455.6,392.6 456.9,393.2 458.2,393.6 459.6,394.2 460.9,394.8 462.1,395.4 463.4,396.1 464.8,396.7 466.1,397.1 467.4,397.7 468.7,398.3 470.1,398.9 471.3,399.5 472.6,400.1 473.9,400.6 475.3,401.2 476.6,401.8 477.8,402.4 479.1,403.0 480.5,403.6 481.8,404.2 483.1,404.8 484.4,405.2 485.8,405.8 487.0,406.4 488.3,407.1 489.6,407.7 491.0,408.3 492.3,408.7 493.5,409.3 494.8,409.9 496.2,410.5 497.5,411.1 498.8,411.7 500.1,412.3 501.5,412.9 502.7,413.4 504.0,414.0 505.3,414.6 506.7,415.2 508.0,415.8 509.2,416.2 510.5,416.8 511.9,417.4 513.2,418.1 514.5,418.7 515.8,419.3 517.2,419.9 518.4,420.3 519.7,420.9 521.0,421.5 522.4,422.1 523.5,422.7 524.9,423.3 526.2,423.8 527.5,424.4 528.8,425.0 530.2,425.6 531.5,426.0 532.7,426.6 534.0,427.2 535.4,427.8 536.7,428.4 538.0,429.1 539.2,429.5 540.6,430.1 541.9,430.7 543.2,431.3 544.5,431.9 545.9,432.5 547.2,433.0 548.4,433.6 549.7,434.2 551.1,434.8 552.4,435.4 553.7,436.0 554.9,436.6 556.3,437.2 557.6,437.6 558.9,438.2 560.2,438.8 561.6,439.4 562.9,440.1 564.1,440.5 565.4,441.1 566.8,441.7 568.1,442.3 569.4,442.9 570.6,443.4 571.9,444.0 573.2,444.6 574.6,445.2 575.9,445.8 577.1,446.4 578.4,446.8 579.7,447.4 581.0,448.0 582.4,448.6 583.7,449.2 584.9,449.8 586.2,450.3 587.5,450.9 588.8,451.5 590.2,452.1 591.4,452.7 592.7,453.3 594.0,453.8 595.4,454.4 596.7,455.0 598.0,455.6 599.2,456.2 600.5,456.8 601.8,457.2 603.2,457.8 604.5,458.4 605.7,459.0 607.0,459.6 608.4,460.2 609.7,460.7 611.0,461.3 612.2,461.9 613.7,462.5 614.9,463.0 616.2,463.6 617.5,464.2 618.9,464.8 620.2,465.4 621.4,466.0 622.7,466.6 624.0,467.2 625.3,467.6 626.7,468.2 627.9,468.8 629.2,469.4 630.5,470.0 631.9,470.6 633.2,471.2 634.5,471.8 635.7,472.3 637.0,472.9 638.3,473.5 639.7,474.1 641.0,474.6 642.2,475.2 643.5,475.8 644.9,476.4 646.2,477.0 647.5,477.6 648.8,478.0 650.0,478.6 651.3,479.2 652.7,479.8 654.0,480.4 655.3,481.0 656.5,481.5 657.8,482.1 659.1,482.7 660.5,483.3 661.8,483.9 663.0,484.5 664.3,485.0 665.7,485.6 667.0,486.2 668.3,486.8 669.6,487.4 671.0,487.8 672.2,488.4 673.5,489.0 674.8,489.6 676.1,490.2 677.3,490.7 678.7,491.3 680.0,491.9 681.3,492.5 682.6,493.1 684.0,493.5 685.1,494.1 686.5,494.7 687.8,495.4 689.1,496.0 690.4,496.4 691.8,497.0 693.0,497.6 694.3,498.2 695.6,498.8 696.9,499.4 698.1,499.9 699.6,500.5 700.8,501.1 702.1,501.7 703.4,502.1 704.8,502.7 705.9,503.3 707.3,503.9 708.6,504.5 709.9,505.1 711.2,505.6 712.6,506.2 713.8,506.8 715.1,507.4 716.4,508.0 717.8,508.6 719.0,509.1 720.4,509.7 721.6,510.3 722.9,510.9 724.2,511.5 725.6,511.9 726.9,512.5 728.1,513.1 729.4,513.7 730.7,514.3 732.0,514.9 733.4,515.5 734.7,516.0 735.9,516.6 737.2,517.2 738.6,517.8 739.9,518.3 741.2,518.9 742.4,519.5 743.8,520.1 745.1,520.7 746.4,521.3 747.7,521.7 748.9,522.3 750.2,522.9 751.6,523.5 752.9,524.1 754.2,524.7 755.5,525.3 756.7,525.9 758.0,526.4 759.4,527.0 760.7,527.6 762.0,528.2 763.2,528.8 764.6,529.4 765.8,530.0 767.2,530.5 768.5,531.1 769.8,531.7 771.0,532.3 772.3,532.7 773.5,533.3 774.7,533.8 775.9,534.4 777.0,534.8 778.0,535.3 779.2,535.9 780.2,536.3 781.1,536.8 782.1,537.1 783.0,537.5 783.9,538.0 784.8,538.3 785.6,538.7 786.3,539.0 787.1,539.3 787.9,539.8 788.5,540.1 789.3,540.4 789.8,540.6 790.4,540.9 791.1,541.2 791.6,541.3 792.1,541.6 792.6,541.8 793.0,542.1 793.5,542.2 793.9,542.4 794.3,542.5 794.5,542.7 794.9,542.8 795.3,543.0 795.7,543.1 796.0,543.3 796.4,543.4 796.7,543.6 797.1,543.7 797.5,543.9 797.8,544.0 798.2,544.2 798.6,544.5 798.9,544.6 799.2,544.8 799.6,544.9 800.0,545.1 800.4,545.2 800.8,545.4 801.2,545.5 801.4,545.7 801.8,545.8 802.2,546.0 802.6,546.1 802.9,546.3 803.3,546.4 803.7,546.6 804.0,546.7 804.3,546.9 804.6,547.0 804.9,547.2 805.1,547.3 805.5,547.5 805.6,547.5 806.0,547.6 806.3,547.8 806.5,547.9 806.8,548.1 807.0,548.2 807.3,548.2 807.5,548.4 807.8,548.5 808.0,548.7 808.3,548.7 808.6,548.8 808.8,549.0 808.9,549.0 809.2,549.1 809.4,549.3 809.7,549.3 810.0,549.4 810.3,549.6 810.6,549.7 810.9,549.7 811.1,549.9 811.5,550.0 811.7,550.2 812.0,550.2 812.3,550.3 812.5,550.5 812.8,550.6 813.0,550.8 813.3,550.8 813.5,551.0 813.9,551.1 814.2,551.3 814.4,551.4 814.8,551.6 815.1,551.7 815.3,551.9 815.7,552.0 816.0,552.2 816.2,552.2 816.6,552.3 816.9,552.5 817.1,552.6 817.4,552.8 817.7,552.9 818.1,553.1 818.4,553.2 818.8,553.4 819.0,553.4 819.3,553.5 819.7,553.7 819.9,553.8 820.2,554.0 820.6,554.1 820.8,554.3 821.1,554.4 821.4,554.6 821.8,554.7 822.2,554.9 822.5,555.0 822.9,555.0 823.2,555.2 823.5,555.3 823.9,555.5 824.0,555.5 824.3,555.6 824.4,555.6 824.5,555.6 824.5,555.8 824.6,555.8 824.4,555.8 824.6,555.9 824.8,555.6 824.9,555.5 825.0,555.3 825.0,555.2 825.3,554.9 825.4,554.7 825.5,554.4 825.7,554.1 825.8,554.0 825.9,553.7 826.0,553.5 826.0,553.4 826.2,553.4 826.2,553.2 826.0,553.7 826.2,553.5 826.3,553.7 826.3,553.5 826.2,553.7 826.3,553.8 826.4,554.0 826.4,554.1 826.6,554.3 826.7,554.4 826.8,554.6 827.1,554.7 827.2,555.0 827.3,555.2 827.4,555.3 827.6,555.5 827.8,555.6 828.0,555.8 828.0,555.9 828.1,556.1 828.2,556.2 828.2,556.4 828.3,556.4 828.3,556.5 828.5,556.5 828.5,556.7 828.6,556.8 828.6,557.0 828.7,557.1 828.7,557.3 828.8,557.3 828.6,557.3 828.5,557.4 828.3,557.4 828.1,557.6 828.0,557.7 827.8,557.7 827.6,557.9 827.4,557.9 827.3,558.0 827.2,558.0 827.1,558.2 827.3,557.9 827.6,557.7 827.8,557.6 828.0,557.4 828.2,557.3 828.5,557.0 828.7,556.8 829.0,556.7 829.2,556.5 829.4,556.5 829.5,556.4 829.6,556.4 829.6,556.2 829.7,556.2 829.7,556.1 829.9,555.9 830.0,555.9 830.1,555.8 830.3,555.6 830.4,555.6 830.5,555.6 830.6,555.8 830.8,555.9 830.9,556.1 831.1,556.2 831.3,556.5 831.5,556.8 831.7,557.1 831.9,557.4 832.2,557.9 832.4,558.2 832.7,558.6 832.9,559.1 833.2,559.4 833.4,559.8 833.7,560.1 833.8,560.3 834.0,560.6 834.1,560.7 834.1,560.9 834.2,560.9 834.2,561.0 834.2,561.2 834.1,561.2 834.0,561.2 833.8,561.2 833.8,561.0 834.0,561.0 834.1,561.0 833.8,561.3 833.7,561.5 833.6,561.6 833.4,561.8 833.3,561.8 833.3,562.0 833.2,562.0 833.1,562.1 833.1,562.3 832.9,562.3 833.2,562.3 833.2,562.4 833.3,562.4 833.3,562.6 833.4,562.6 833.4,562.7 833.6,562.7 833.6,562.9 833.7,563.0 833.7,563.2 833.8,563.2 833.8,563.3 834.0,563.5 834.1,563.6 834.2,563.8 834.2,563.9 834.3,563.9 834.3,564.1 834.3,564.2 834.2,564.4 834.1,564.5 834.0,564.7 833.8,564.8 833.7,565.0 833.7,565.1 833.6,565.1 833.4,565.1 833.4,565.0 833.6,565.0" fill="none" stroke="#1b6ca8" stroke-width="2.5" stroke-linejoin="round" stroke-linecap="round" stroke-dasharray="6 4" opacity="0.7"/>
  <polyline points="162.6,267.3 165.9,264.8 172.4,266.9 183.1,271.6 196.5,277.3 209.6,283.5 222.8,289.5 236.3,295.0 249.5,301.2 262.6,306.8 275.6,312.8 288.6,319.2 302.0,324.6 315.3,330.3 328.7,336.1 341.6,342.1 354.6,348.0 367.7,353.5 380.7,359.6 393.7,365.0 406.8,370.6 419.8,376.3 432.7,382.5 445.6,388.6 459.0,393.9 472.1,399.7 485.3,405.5 498.4,411.4 511.4,417.3 524.5,423.0 537.5,428.9 550.7,434.6 563.7,440.5 576.9,446.2 589.9,452.1 603.2,457.4 616.0,463.7 629.1,469.4 642.4,474.7 655.2,481.0 668.2,486.9 681.4,492.2 694.2,498.4 707.2,504.2 720.4,509.5 733.3,515.7 746.3,521.6 759.5,526.9 772.5,532.6 785.5,538.3 798.5,544.1 811.6,549.8 824.4,555.9 837.2,562.4 850.4,567.5 862.8,572.4 871.4,577.6 877.7,579.4 881.8,579.9 885.2,582.1 888.3,584.6 889.5,586.2 892.3,582.6 892.9,584.9 893.0,588.5 895.1,587.9 898.0,585.9 900.0,586.4 898.3,586.2 895.9,585.2 893.9,584.3 891.8,583.6 889.7,582.7 887.5,581.8 885.4,581.0 883.2,580.0 881.0,579.1 857.4,505.4 854.6,504.5 853.3,506.8 852.2,508.8 851.2,511.0 849.9,512.9 848.7,514.9 847.5,516.9 846.3,518.9 845.0,520.8 843.8,522.8 846.9,579.8 846.3,580.1 844.4,580.2 843.4,578.8 841.9,576.9 839.2,575.7 843.1,546.2 842.7,545.9 841.5,547.1 839.7,566.0 840.4,570.0 841.3,572.9 840.5,571.8 839.0,569.7 838.0,567.8 837.5,568.2 836.8,568.3 835.7,566.5 835.2,565.6 835.7,566.5 836.2,567.2 835.5,568.0 834.6,566.8 834.1,565.8 833.9,565.5 833.6,565.2 833.4,565.0" fill="none" stroke="#1a9850" stroke-width="2.5" stroke-linejoin="round" stroke-linecap="round" opacity="1.0"/>
  <polyline points="159.6,277.8 162.4,280.2 166.8,283.9 172.9,287.5 179.8,291.9 188.3,298.2 197.8,305.3 209.0,312.7 221.4,320.8 235.1,329.0 251.1,338.0 268.1,346.6 285.5,354.6 302.9,361.7 320.2,367.7 337.2,372.4 353.3,375.8 368.5,377.8 382.6,378.8 395.3,380.1 407.8,381.3 419.3,382.6 430.2,385.3 441.8,388.8 453.4,392.8 465.5,398.1 477.5,405.1 490.4,412.9 503.7,421.5 517.1,430.4 530.6,439.3 544.3,448.0 558.1,456.6 571.5,464.6 585.2,472.2 598.9,478.9 612.7,485.1 626.3,491.1 639.1,495.3 651.6,499.8 664.2,504.1 676.9,508.4 689.5,512.5 701.9,516.3 714.4,520.0 727.5,523.5 740.3,526.9 753.3,530.0 766.1,532.9 778.8,535.5 791.0,538.4 802.8,541.3 814.2,544.4 824.5,547.9 834.1,551.8 842.8,555.8 850.9,559.7 858.4,563.8 865.0,567.6 870.4,571.5 874.9,575.2 878.5,578.6 881.6,581.7 884.1,584.4 885.4,586.4 886.1,588.1 886.2,589.2 885.9,590.0 884.9,589.7 883.5,587.7 880.7,584.7 877.5,581.3 873.7,577.3 869.5,572.8 864.9,567.7 859.8,562.2 854.7,556.5 849.6,550.9 844.7,545.6 840.2,540.7 836.1,536.6 832.5,533.2 829.4,530.7 827.0,529.2 825.2,528.4 823.8,528.4 823.0,529.1 822.7,530.7 822.5,533.1 823.1,535.7 823.6,537.8 824.1,539.9 824.5,542.0 824.9,544.0 825.3,545.8 825.7,547.6 826.1,549.3 826.6,550.8 827.1,552.3 827.5,553.7 828.0,554.9 828.5,556.1 829.1,557.3 829.7,558.4 830.4,559.5 831.0,560.5 831.6,561.3 832.1,562.1 832.7,562.8 833.1,563.5 833.6,564.0 834.0,564.5 834.4,564.9 834.7,565.2 835.0,565.6" fill="none" stroke="#d73027" stroke-width="2.5" stroke-linejoin="round" stroke-linecap="round" opacity="1.0"/>
  <circle cx="80.0" cy="225.5" r="5" fill="#1b6ca8"/>
  <circle cx="833.6" cy="565.0" r="5" fill="#1b6ca8"/>
  <circle cx="162.6" cy="267.3" r="5" fill="#1a9850"/>
  <circle cx="833.4" cy="565.0" r="5" fill="#1a9850"/>
  <circle cx="159.6" cy="277.8" r="5" fill="#d73027"/>
  <circle cx="835.0" cy="565.6" r="5" fill="#d73027"/>
  <line x1="162.6" y1="267.3" x2="159.6" y2="277.8" stroke="#888" stroke-width="1" opacity="0.23"/>
  <line x1="165.9" y1="264.8" x2="162.4" y2="280.2" stroke="#888" stroke-width="1" opacity="0.29"/>
  <line x1="172.4" y1="266.9" x2="166.8" y2="283.9" stroke="#888" stroke-width="1" opacity="0.32"/>
  <line x1="183.1" y1="271.6" x2="172.9" y2="287.5" stroke="#888" stroke-width="1" opacity="0.33"/>
  <line x1="196.5" y1="277.3" x2="179.8" y2="291.9" stroke="#888" stroke-width="1" opacity="0.37"/>
  <line x1="209.6" y1="283.5" x2="188.3" y2="298.2" stroke="#888" stroke-width="1" opacity="0.42"/>
  <line x1="222.8" y1="289.5" x2="197.8" y2="305.3" stroke="#888" stroke-width="1" opacity="0.46"/>
  <line x1="236.3" y1="295.0" x2="209.0" y2="312.7" stroke="#888" stroke-width="1" opacity="0.50"/>
  <line x1="249.5" y1="301.2" x2="221.4" y2="320.8" stroke="#888" stroke-width="1" opacity="0.52"/>
  <line x1="262.6" y1="306.8" x2="235.1" y2="329.0" stroke="#888" stroke-width="1" opacity="0.54"/>
  <line x1="275.6" y1="312.8" x2="251.1" y2="338.0" stroke="#888" stroke-width="1" opacity="0.53"/>
  <line x1="288.6" y1="319.2" x2="268.1" y2="346.6" stroke="#888" stroke-width="1" opacity="0.52"/>
  <line x1="302.0" y1="324.6" x2="285.5" y2="354.6" stroke="#888" stroke-width="1" opacity="0.52"/>
  <line x1="315.3" y1="330.3" x2="302.9" y2="361.7" stroke="#888" stroke-width="1" opacity="0.52"/>
  <line x1="328.7" y1="336.1" x2="320.2" y2="367.7" stroke="#888" stroke-width="1" opacity="0.50"/>
  <line x1="341.6" y1="342.1" x2="337.2" y2="372.4" stroke="#888" stroke-width="1" opacity="0.48"/>
  <line x1="354.6" y1="348.0" x2="353.3" y2="375.8" stroke="#888" stroke-width="1" opacity="0.44"/>
  <line x1="367.7" y1="353.5" x2="368.5" y2="377.8" stroke="#888" stroke-width="1" opacity="0.40"/>
  <line x1="380.7" y1="359.6" x2="382.6" y2="378.8" stroke="#888" stroke-width="1" opacity="0.34"/>
  <line x1="393.7" y1="365.0" x2="395.3" y2="380.1" stroke="#888" stroke-width="1" opacity="0.29"/>
  <line x1="406.8" y1="370.6" x2="407.8" y2="381.3" stroke="#888" stroke-width="1" opacity="0.23"/>
  <line x1="419.8" y1="376.3" x2="419.3" y2="382.6" stroke="#888" stroke-width="1" opacity="0.18"/>
  <line x1="432.7" y1="382.5" x2="430.2" y2="385.3" stroke="#888" stroke-width="1" opacity="0.15"/>
  <line x1="445.6" y1="388.6" x2="441.8" y2="388.8" stroke="#888" stroke-width="1" opacity="0.15"/>
  <line x1="459.0" y1="393.9" x2="453.4" y2="392.8" stroke="#888" stroke-width="1" opacity="0.17"/>
  <line x1="472.1" y1="399.7" x2="465.5" y2="398.1" stroke="#888" stroke-width="1" opacity="0.18"/>
  <line x1="485.3" y1="405.5" x2="477.5" y2="405.1" stroke="#888" stroke-width="1" opacity="0.20"/>
  <line x1="498.4" y1="411.4" x2="490.4" y2="412.9" stroke="#888" stroke-width="1" opacity="0.20"/>
  <line x1="511.4" y1="417.3" x2="503.7" y2="421.5" stroke="#888" stroke-width="1" opacity="0.21"/>
  <line x1="524.5" y1="423.0" x2="517.1" y2="430.4" stroke="#888" stroke-width="1" opacity="0.23"/>
  <line x1="537.5" y1="428.9" x2="530.6" y2="439.3" stroke="#888" stroke-width="1" opacity="0.25"/>
  <line x1="550.7" y1="434.6" x2="544.3" y2="448.0" stroke="#888" stroke-width="1" opacity="0.28"/>
  <line x1="563.7" y1="440.5" x2="558.1" y2="456.6" stroke="#888" stroke-width="1" opacity="0.31"/>
  <line x1="576.9" y1="446.2" x2="571.5" y2="464.6" stroke="#888" stroke-width="1" opacity="0.34"/>
  <line x1="589.9" y1="452.1" x2="585.2" y2="472.2" stroke="#888" stroke-width="1" opacity="0.35"/>
  <line x1="603.2" y1="457.4" x2="598.9" y2="478.9" stroke="#888" stroke-width="1" opacity="0.37"/>
  <line x1="616.0" y1="463.7" x2="612.7" y2="485.1" stroke="#888" stroke-width="1" opacity="0.37"/>
  <line x1="629.1" y1="469.4" x2="626.3" y2="491.1" stroke="#888" stroke-width="1" opacity="0.37"/>
  <line x1="642.4" y1="474.7" x2="639.1" y2="495.3" stroke="#888" stroke-width="1" opacity="0.36"/>
  <line x1="655.2" y1="481.0" x2="651.6" y2="499.8" stroke="#888" stroke-width="1" opacity="0.34"/>
  <line x1="668.2" y1="486.9" x2="664.2" y2="504.1" stroke="#888" stroke-width="1" opacity="0.32"/>
  <line x1="681.4" y1="492.2" x2="676.9" y2="508.4" stroke="#888" stroke-width="1" opacity="0.31"/>
  <line x1="694.2" y1="498.4" x2="689.5" y2="512.5" stroke="#888" stroke-width="1" opacity="0.28"/>
  <line x1="707.2" y1="504.2" x2="701.9" y2="516.3" stroke="#888" stroke-width="1" opacity="0.26"/>
  <line x1="720.4" y1="509.5" x2="714.4" y2="520.0" stroke="#888" stroke-width="1" opacity="0.25"/>
  <line x1="733.3" y1="515.7" x2="727.5" y2="523.5" stroke="#888" stroke-width="1" opacity="0.22"/>
  <line x1="746.3" y1="521.6" x2="740.3" y2="526.9" stroke="#888" stroke-width="1" opacity="0.20"/>
  <line x1="759.5" y1="526.9" x2="753.3" y2="530.0" stroke="#888" stroke-width="1" opacity="0.18"/>
  <line x1="772.5" y1="532.6" x2="766.1" y2="532.9" stroke="#888" stroke-width="1" opacity="0.18"/>
  <line x1="785.5" y1="538.3" x2="778.8" y2="535.5" stroke="#888" stroke-width="1" opacity="0.19"/>
  <line x1="798.5" y1="544.1" x2="791.0" y2="538.4" stroke="#888" stroke-width="1" opacity="0.22"/>
  <line x1="811.6" y1="549.8" x2="802.8" y2="541.3" stroke="#888" stroke-width="1" opacity="0.25"/>
  <line x1="824.4" y1="555.9" x2="814.2" y2="544.4" stroke="#888" stroke-width="1" opacity="0.29"/>
  <line x1="837.2" y1="562.4" x2="824.5" y2="547.9" stroke="#888" stroke-width="1" opacity="0.34"/>
  <line x1="850.4" y1="567.5" x2="834.1" y2="551.8" stroke="#888" stroke-width="1" opacity="0.38"/>
  <line x1="862.8" y1="572.4" x2="842.8" y2="555.8" stroke="#888" stroke-width="1" opacity="0.42"/>
  <line x1="871.4" y1="577.6" x2="850.9" y2="559.7" stroke="#888" stroke-width="1" opacity="0.43"/>
  <line x1="877.7" y1="579.4" x2="858.4" y2="563.8" stroke="#888" stroke-width="1" opacity="0.41"/>
  <line x1="881.8" y1="579.9" x2="865.0" y2="567.6" stroke="#888" stroke-width="1" opacity="0.36"/>
  <line x1="885.2" y1="582.1" x2="870.4" y2="571.5" stroke="#888" stroke-width="1" opacity="0.32"/>
  <line x1="888.3" y1="584.6" x2="874.9" y2="575.2" stroke="#888" stroke-width="1" opacity="0.30"/>
  <line x1="889.5" y1="586.2" x2="878.5" y2="578.6" stroke="#888" stroke-width="1" opacity="0.26"/>
  <line x1="892.3" y1="582.6" x2="881.6" y2="581.7" stroke="#888" stroke-width="1" opacity="0.23"/>
  <line x1="892.9" y1="584.9" x2="884.1" y2="584.4" stroke="#888" stroke-width="1" opacity="0.21"/>
  <line x1="893.0" y1="588.5" x2="885.4" y2="586.4" stroke="#888" stroke-width="1" opacity="0.20"/>
  <line x1="895.1" y1="587.9" x2="886.1" y2="588.1" stroke="#888" stroke-width="1" opacity="0.21"/>
  <line x1="898.0" y1="585.9" x2="886.2" y2="589.2" stroke="#888" stroke-width="1" opacity="0.25"/>
  <line x1="900.0" y1="586.4" x2="885.9" y2="590.0" stroke="#888" stroke-width="1" opacity="0.28"/>
  <line x1="898.3" y1="586.2" x2="884.9" y2="589.7" stroke="#888" stroke-width="1" opacity="0.27"/>
  <line x1="895.9" y1="585.2" x2="883.5" y2="587.7" stroke="#888" stroke-width="1" opacity="0.26"/>
  <line x1="893.9" y1="584.3" x2="880.7" y2="584.7" stroke="#888" stroke-width="1" opacity="0.26"/>
  <line x1="891.8" y1="583.6" x2="877.5" y2="581.3" stroke="#888" stroke-width="1" opacity="0.28"/>
  <line x1="889.7" y1="582.7" x2="873.7" y2="577.3" stroke="#888" stroke-width="1" opacity="0.31"/>
  <line x1="887.5" y1="581.8" x2="869.5" y2="572.8" stroke="#888" stroke-width="1" opacity="0.35"/>
  <line x1="885.4" y1="581.0" x2="864.9" y2="567.7" stroke="#888" stroke-width="1" opacity="0.40"/>
  <line x1="883.2" y1="580.0" x2="859.8" y2="562.2" stroke="#888" stroke-width="1" opacity="0.46"/>
  <line x1="881.0" y1="579.1" x2="854.7" y2="556.5" stroke="#888" stroke-width="1" opacity="0.53"/>
  <line x1="857.4" y1="505.4" x2="849.6" y2="550.9" stroke="#888" stroke-width="1" opacity="0.60"/>
  <line x1="854.6" y1="504.5" x2="844.7" y2="545.6" stroke="#888" stroke-width="1" opacity="0.60"/>
  <line x1="853.3" y1="506.8" x2="840.2" y2="540.7" stroke="#888" stroke-width="1" opacity="0.55"/>
  <line x1="852.2" y1="508.8" x2="836.1" y2="536.6" stroke="#888" stroke-width="1" opacity="0.50"/>
  <line x1="851.2" y1="511.0" x2="832.5" y2="533.2" stroke="#888" stroke-width="1" opacity="0.46"/>
  <line x1="849.9" y1="512.9" x2="829.4" y2="530.7" stroke="#888" stroke-width="1" opacity="0.43"/>
  <line x1="848.7" y1="514.9" x2="827.0" y2="529.2" stroke="#888" stroke-width="1" opacity="0.42"/>
  <line x1="847.5" y1="516.9" x2="825.2" y2="528.4" stroke="#888" stroke-width="1" opacity="0.41"/>
  <line x1="846.3" y1="518.9" x2="823.8" y2="528.4" stroke="#888" stroke-width="1" opacity="0.40"/>
  <line x1="845.0" y1="520.8" x2="823.0" y2="529.1" stroke="#888" stroke-width="1" opacity="0.39"/>
  <line x1="843.8" y1="522.8" x2="822.7" y2="530.7" stroke="#888" stroke-width="1" opacity="0.38"/>
  <line x1="846.9" y1="579.8" x2="822.5" y2="533.1" stroke="#888" stroke-width="1" opacity="0.60"/>
  <line x1="846.3" y1="580.1" x2="823.1" y2="535.7" stroke="#888" stroke-width="1" opacity="0.60"/>
  <line x1="844.4" y1="580.2" x2="823.6" y2="537.8" stroke="#888" stroke-width="1" opacity="0.60"/>
  <line x1="843.4" y1="578.8" x2="824.1" y2="539.9" stroke="#888" stroke-width="1" opacity="0.60"/>
  <line x1="841.9" y1="576.9" x2="824.5" y2="542.0" stroke="#888" stroke-width="1" opacity="0.58"/>
  <line x1="839.2" y1="575.7" x2="824.9" y2="544.0" stroke="#888" stroke-width="1" opacity="0.53"/>
  <line x1="843.1" y1="546.2" x2="825.3" y2="545.8" stroke="#888" stroke-width="1" opacity="0.32"/>
  <line x1="842.7" y1="545.9" x2="825.7" y2="547.6" stroke="#888" stroke-width="1" opacity="0.31"/>
  <line x1="841.5" y1="547.1" x2="826.1" y2="549.3" stroke="#888" stroke-width="1" opacity="0.29"/>
  <line x1="839.7" y1="566.0" x2="826.6" y2="550.8" stroke="#888" stroke-width="1" opacity="0.35"/>
  <line x1="840.4" y1="570.0" x2="827.1" y2="552.3" stroke="#888" stroke-width="1" opacity="0.37"/>
  <line x1="841.3" y1="572.9" x2="827.5" y2="553.7" stroke="#888" stroke-width="1" opacity="0.39"/>
  <line x1="840.5" y1="571.8" x2="828.0" y2="554.9" stroke="#888" stroke-width="1" opacity="0.36"/>
  <line x1="839.0" y1="569.7" x2="828.5" y2="556.1" stroke="#888" stroke-width="1" opacity="0.31"/>
  <line x1="838.0" y1="567.8" x2="829.1" y2="557.3" stroke="#888" stroke-width="1" opacity="0.27"/>
  <line x1="837.5" y1="568.2" x2="829.7" y2="558.4" stroke="#888" stroke-width="1" opacity="0.25"/>
  <line x1="836.8" y1="568.3" x2="830.4" y2="559.5" stroke="#888" stroke-width="1" opacity="0.23"/>
  <line x1="835.7" y1="566.5" x2="831.0" y2="560.5" stroke="#888" stroke-width="1" opacity="0.19"/>
  <line x1="835.2" y1="565.6" x2="831.6" y2="561.3" stroke="#888" stroke-width="1" opacity="0.17"/>
  <line x1="835.7" y1="566.5" x2="832.1" y2="562.1" stroke="#888" stroke-width="1" opacity="0.17"/>
  <line x1="836.2" y1="567.2" x2="832.7" y2="562.8" stroke="#888" stroke-width="1" opacity="0.17"/>
  <line x1="835.5" y1="568.0" x2="833.1" y2="563.5" stroke="#888" stroke-width="1" opacity="0.16"/>
  <line x1="834.6" y1="566.8" x2="833.6" y2="564.0" stroke="#888" stroke-width="1" opacity="0.14"/>
  <line x1="834.1" y1="565.8" x2="834.0" y2="564.5" stroke="#888" stroke-width="1" opacity="0.12"/>
  <line x1="833.9" y1="565.5" x2="834.4" y2="564.9" stroke="#888" stroke-width="1" opacity="0.11"/>
  <line x1="833.6" y1="565.2" x2="834.7" y2="565.2" stroke="#888" stroke-width="1" opacity="0.11"/>
  <line x1="833.4" y1="565.0" x2="835.0" y2="565.6" stroke="#888" stroke-width="1" opacity="0.12"/>
  <line x1="80" y1="696" x2="104" y2="696" stroke="#1b6ca8" stroke-width="3" stroke-dasharray="6 4"/><text x="112" y="700" font-family="Arial, sans-serif" font-size="13" fill="#333">Drone GNSS path (SRT)</text>
  <line x1="340" y1="696" x2="364" y2="696" stroke="#1a9850" stroke-width="3"/><text x="372" y="700" font-family="Arial, sans-serif" font-size="13" fill="#333">Ground-truth camera-center (geometry)</text>
  <line x1="640" y1="696" x2="664" y2="696" stroke="#d73027" stroke-width="3"/><text x="672" y="700" font-family="Arial, sans-serif" font-size="13" fill="#333">Estimated camera-center (Viterbi + smoothing w=19)</text>
  <text x="80" y="728" font-family="Arial, sans-serif" font-size="12" fill="#777">Grey lines connect ground-truth to estimated camera-center per frame. Darker = larger error. Local XY coordinates in metres (origin = first SRT point).</text>
  <line x1="822.3" y1="560" x2="890.0" y2="560" stroke="#444" stroke-width="2"/>
  <text x="856.2" y="554" font-family="Arial, sans-serif" font-size="12" fill="#444" text-anchor="middle">50 m</text>
</svg>
